<?xml version="1.0" encoding="UTF-8" standalone="no"?>
<!DOCTYPE svg PUBLIC "-//W3C//DTD SVG 1.1//EN"
 "http://www.w3.org/Graphics/SVG/1.1/DTD/svg11.dtd">
<!-- Generated by graphviz version 13.1.0 (20250701.0955)
 -->
<!-- Title: interface/driver_max30205_interface.h Pages: 1 -->
<svg width="966pt" height="176pt"
 viewBox="0.00 0.00 966.00 176.00" xmlns="http://www.w3.org/2000/svg" xmlns:xlink="http://www.w3.org/1999/xlink">
<g id="graph0" class="graph" transform="scale(1 1) rotate(0) translate(4 172)">
<title>interface/driver_max30205_interface.h</title>
<!-- Node1 -->
<g id="Node000001" class="node">
<title>Node1</title>
<g id="a_Node000001"><a xlink:title="driver max30205 interface header file">
<polygon fill="#999999" stroke="#666666" points="574.38,-168 443.62,-168 443.62,-136 574.38,-136 574.38,-168"/>
<text xml:space="preserve" text-anchor="start" x="451.62" y="-154.5" font-family="Helvetica,sans-Serif" font-size="10.00">interface/driver_max30205</text>
<text xml:space="preserve" text-anchor="middle" x="509" y="-142.5" font-family="Helvetica,sans-Serif" font-size="10.00">_interface.h</text>
</a>
</g>
</g>
<!-- Node2 -->
<g id="Node000002" class="node">
<title>Node2</title>
<g id="a_Node000002"><a xlink:href="driver__max30205__basic_8h.html" target="_top" xlink:title="driver max30205 basic header file">
<polygon fill="white" stroke="#666666" points="130,-100 0,-100 0,-68 130,-68 130,-100"/>
<text xml:space="preserve" text-anchor="start" x="8" y="-86.5" font-family="Helvetica,sans-Serif" font-size="10.00">example/driver_max30205</text>
<text xml:space="preserve" text-anchor="middle" x="65" y="-74.5" font-family="Helvetica,sans-Serif" font-size="10.00">_basic.h</text>
</a>
</g>
</g>
<!-- Node1&#45;&gt;Node2 -->
<g id="edge1_Node000001_Node000002" class="edge">
<title>Node1&#45;&gt;Node2</title>
<g id="a_edge1_Node000001_Node000002"><a xlink:title=" ">
<path fill="none" stroke="#63b8ff" d="M432.1,-141.84C357.11,-132.56 239.93,-117.17 139,-100 136.16,-99.52 133.26,-99.01 130.33,-98.47"/>
<polygon fill="#63b8ff" stroke="#63b8ff" points="431.45,-145.28 441.81,-143.03 432.31,-138.33 431.45,-145.28"/>
</a>
</g>
</g>
<!-- Node4 -->
<g id="Node000004" class="node">
<title>Node4</title>
<g id="a_Node000004"><a xlink:href="driver__max30205__interrupt_8h.html" target="_top" xlink:title="driver max30205 interrupt header file">
<polygon fill="white" stroke="#666666" points="278,-100 148,-100 148,-68 278,-68 278,-100"/>
<text xml:space="preserve" text-anchor="start" x="156" y="-86.5" font-family="Helvetica,sans-Serif" font-size="10.00">example/driver_max30205</text>
<text xml:space="preserve" text-anchor="middle" x="213" y="-74.5" font-family="Helvetica,sans-Serif" font-size="10.00">_interrupt.h</text>
</a>
</g>
</g>
<!-- Node1&#45;&gt;Node4 -->
<g id="edge3_Node000001_Node000004" class="edge">
<title>Node1&#45;&gt;Node4</title>
<g id="a_edge3_Node000001_Node000004"><a xlink:title=" ">
<path fill="none" stroke="#63b8ff" d="M432.09,-133.85C384.34,-123.2 323.65,-109.67 278.25,-99.55"/>
<polygon fill="#63b8ff" stroke="#63b8ff" points="431.31,-137.26 441.83,-136.02 432.83,-130.43 431.31,-137.26"/>
</a>
</g>
</g>
<!-- Node6 -->
<g id="Node000006" class="node">
<title>Node6</title>
<g id="a_Node000006"><a xlink:href="driver__max30205__shot_8h.html" target="_top" xlink:title="driver max30205 shot header file">
<polygon fill="white" stroke="#666666" points="426,-100 296,-100 296,-68 426,-68 426,-100"/>
<text xml:space="preserve" text-anchor="start" x="304" y="-86.5" font-family="Helvetica,sans-Serif" font-size="10.00">example/driver_max30205</text>
<text xml:space="preserve" text-anchor="middle" x="361" y="-74.5" font-family="Helvetica,sans-Serif" font-size="10.00">_shot.h</text>
</a>
</g>
</g>
<!-- Node1&#45;&gt;Node6 -->
<g id="edge5_Node000001_Node000006" class="edge">
<title>Node1&#45;&gt;Node6</title>
<g id="a_edge5_Node000001_Node000006"><a xlink:title=" ">
<path fill="none" stroke="#63b8ff" d="M463.91,-130.89C442,-121.12 416.08,-109.56 395.74,-100.49"/>
<polygon fill="#63b8ff" stroke="#63b8ff" points="462.36,-134.03 472.92,-134.91 465.21,-127.64 462.36,-134.03"/>
</a>
</g>
</g>
<!-- Node8 -->
<g id="Node000008" class="node">
<title>Node8</title>
<g id="a_Node000008"><a xlink:href="driver__max30205__interface__template_8c.html" target="_top" xlink:title="driver max30205 interface template source file">
<polygon fill="white" stroke="#666666" points="574.38,-100 443.62,-100 443.62,-68 574.38,-68 574.38,-100"/>
<text xml:space="preserve" text-anchor="start" x="451.62" y="-86.5" font-family="Helvetica,sans-Serif" font-size="10.00">interface/driver_max30205</text>
<text xml:space="preserve" text-anchor="middle" x="509" y="-74.5" font-family="Helvetica,sans-Serif" font-size="10.00">_interface_template.c</text>
</a>
</g>
</g>
<!-- Node1&#45;&gt;Node8 -->
<g id="edge7_Node000001_Node000008" class="edge">
<title>Node1&#45;&gt;Node8</title>
<g id="a_edge7_Node000001_Node000008"><a xlink:title=" ">
<path fill="none" stroke="#63b8ff" d="M509,-124.31C509,-116.12 509,-107.38 509,-100.22"/>
<polygon fill="#63b8ff" stroke="#63b8ff" points="505.5,-124.18 509,-134.18 512.5,-124.18 505.5,-124.18"/>
</a>
</g>
</g>
<!-- Node9 -->
<g id="Node000009" class="node">
<title>Node9</title>
<g id="a_Node000009"><a xlink:href="driver__max30205__interrupt__test_8h.html" target="_top" xlink:title="driver max30205 interrupt test header file">
<polygon fill="white" stroke="#666666" points="701.88,-100 592.12,-100 592.12,-68 701.88,-68 701.88,-100"/>
<text xml:space="preserve" text-anchor="start" x="600.12" y="-86.5" font-family="Helvetica,sans-Serif" font-size="10.00">test/driver_max30205</text>
<text xml:space="preserve" text-anchor="middle" x="647" y="-74.5" font-family="Helvetica,sans-Serif" font-size="10.00">_interrupt_test.h</text>
</a>
</g>
</g>
<!-- Node1&#45;&gt;Node9 -->
<g id="edge8_Node000001_Node000009" class="edge">
<title>Node1&#45;&gt;Node9</title>
<g id="a_edge8_Node000001_Node000009"><a xlink:title=" ">
<path fill="none" stroke="#63b8ff" d="M551.64,-130.61C572.03,-120.86 596.03,-109.38 614.85,-100.38"/>
<polygon fill="#63b8ff" stroke="#63b8ff" points="550.23,-127.4 542.72,-134.87 553.25,-133.72 550.23,-127.4"/>
</a>
</g>
</g>
<!-- Node11 -->
<g id="Node000011" class="node">
<title>Node11</title>
<g id="a_Node000011"><a xlink:href="driver__max30205__read__test_8h.html" target="_top" xlink:title="driver max30205 read test header file">
<polygon fill="white" stroke="#666666" points="829.88,-100 720.12,-100 720.12,-68 829.88,-68 829.88,-100"/>
<text xml:space="preserve" text-anchor="start" x="728.12" y="-86.5" font-family="Helvetica,sans-Serif" font-size="10.00">test/driver_max30205</text>
<text xml:space="preserve" text-anchor="middle" x="775" y="-74.5" font-family="Helvetica,sans-Serif" font-size="10.00">_read_test.h</text>
</a>
</g>
</g>
<!-- Node1&#45;&gt;Node11 -->
<g id="edge10_Node000001_Node000011" class="edge">
<title>Node1&#45;&gt;Node11</title>
<g id="a_edge10_Node000001_Node000011"><a xlink:title=" ">
<path fill="none" stroke="#63b8ff" d="M582.45,-132.78C625.89,-122 680.01,-108.57 719.8,-98.7"/>
<polygon fill="#63b8ff" stroke="#63b8ff" points="581.7,-129.36 572.83,-135.16 583.38,-136.15 581.7,-129.36"/>
</a>
</g>
</g>
<!-- Node13 -->
<g id="Node000013" class="node">
<title>Node13</title>
<g id="a_Node000013"><a xlink:href="driver__max30205__register__test_8h.html" target="_top" xlink:title="driver max30205 register test header file">
<polygon fill="white" stroke="#666666" points="957.88,-100 848.12,-100 848.12,-68 957.88,-68 957.88,-100"/>
<text xml:space="preserve" text-anchor="start" x="856.12" y="-86.5" font-family="Helvetica,sans-Serif" font-size="10.00">test/driver_max30205</text>
<text xml:space="preserve" text-anchor="middle" x="903" y="-74.5" font-family="Helvetica,sans-Serif" font-size="10.00">_register_test.h</text>
</a>
</g>
</g>
<!-- Node1&#45;&gt;Node13 -->
<g id="edge12_Node000001_Node000013" class="edge">
<title>Node1&#45;&gt;Node13</title>
<g id="a_edge12_Node000001_Node000013"><a xlink:title=" ">
<path fill="none" stroke="#63b8ff" d="M585.99,-140.81C653.06,-131.53 752.79,-116.74 839,-100 841.91,-99.43 844.89,-98.83 847.9,-98.2"/>
<polygon fill="#63b8ff" stroke="#63b8ff" points="585.62,-137.33 576.19,-142.16 586.57,-144.26 585.62,-137.33"/>
</a>
</g>
</g>
<!-- Node3 -->
<g id="Node000003" class="node">
<title>Node3</title>
<g id="a_Node000003"><a xlink:href="driver__max30205__basic_8c.html" target="_top" xlink:title="driver max30205 basic source file">
<polygon fill="white" stroke="#666666" points="130,-32 0,-32 0,0 130,0 130,-32"/>
<text xml:space="preserve" text-anchor="start" x="8" y="-18.5" font-family="Helvetica,sans-Serif" font-size="10.00">example/driver_max30205</text>
<text xml:space="preserve" text-anchor="middle" x="65" y="-6.5" font-family="Helvetica,sans-Serif" font-size="10.00">_basic.c</text>
</a>
</g>
</g>
<!-- Node2&#45;&gt;Node3 -->
<g id="edge2_Node000002_Node000003" class="edge">
<title>Node2&#45;&gt;Node3</title>
<g id="a_edge2_Node000002_Node000003"><a xlink:title=" ">
<path fill="none" stroke="#63b8ff" d="M65,-56.31C65,-48.12 65,-39.38 65,-32.22"/>
<polygon fill="#63b8ff" stroke="#63b8ff" points="61.5,-56.18 65,-66.18 68.5,-56.18 61.5,-56.18"/>
</a>
</g>
</g>
<!-- Node5 -->
<g id="Node000005" class="node">
<title>Node5</title>
<g id="a_Node000005"><a xlink:href="driver__max30205__interrupt_8c.html" target="_top" xlink:title="driver max30205 interrupt source file">
<polygon fill="white" stroke="#666666" points="278,-32 148,-32 148,0 278,0 278,-32"/>
<text xml:space="preserve" text-anchor="start" x="156" y="-18.5" font-family="Helvetica,sans-Serif" font-size="10.00">example/driver_max30205</text>
<text xml:space="preserve" text-anchor="middle" x="213" y="-6.5" font-family="Helvetica,sans-Serif" font-size="10.00">_interrupt.c</text>
</a>
</g>
</g>
<!-- Node4&#45;&gt;Node5 -->
<g id="edge4_Node000004_Node000005" class="edge">
<title>Node4&#45;&gt;Node5</title>
<g id="a_edge4_Node000004_Node000005"><a xlink:title=" ">
<path fill="none" stroke="#63b8ff" d="M213,-56.31C213,-48.12 213,-39.38 213,-32.22"/>
<polygon fill="#63b8ff" stroke="#63b8ff" points="209.5,-56.18 213,-66.18 216.5,-56.18 209.5,-56.18"/>
</a>
</g>
</g>
<!-- Node7 -->
<g id="Node000007" class="node">
<title>Node7</title>
<g id="a_Node000007"><a xlink:href="driver__max30205__shot_8c.html" target="_top" xlink:title="driver max30205 shot source file">
<polygon fill="white" stroke="#666666" points="426,-32 296,-32 296,0 426,0 426,-32"/>
<text xml:space="preserve" text-anchor="start" x="304" y="-18.5" font-family="Helvetica,sans-Serif" font-size="10.00">example/driver_max30205</text>
<text xml:space="preserve" text-anchor="middle" x="361" y="-6.5" font-family="Helvetica,sans-Serif" font-size="10.00">_shot.c</text>
</a>
</g>
</g>
<!-- Node6&#45;&gt;Node7 -->
<g id="edge6_Node000006_Node000007" class="edge">
<title>Node6&#45;&gt;Node7</title>
<g id="a_edge6_Node000006_Node000007"><a xlink:title=" ">
<path fill="none" stroke="#63b8ff" d="M361,-56.31C361,-48.12 361,-39.38 361,-32.22"/>
<polygon fill="#63b8ff" stroke="#63b8ff" points="357.5,-56.18 361,-66.18 364.5,-56.18 357.5,-56.18"/>
</a>
</g>
</g>
<!-- Node10 -->
<g id="Node000010" class="node">
<title>Node10</title>
<g id="a_Node000010"><a xlink:href="driver__max30205__interrupt__test_8c.html" target="_top" xlink:title="driver max30205 interrupt test source file">
<polygon fill="white" stroke="#666666" points="701.88,-32 592.12,-32 592.12,0 701.88,0 701.88,-32"/>
<text xml:space="preserve" text-anchor="start" x="600.12" y="-18.5" font-family="Helvetica,sans-Serif" font-size="10.00">test/driver_max30205</text>
<text xml:space="preserve" text-anchor="middle" x="647" y="-6.5" font-family="Helvetica,sans-Serif" font-size="10.00">_interrupt_test.c</text>
</a>
</g>
</g>
<!-- Node9&#45;&gt;Node10 -->
<g id="edge9_Node000009_Node000010" class="edge">
<title>Node9&#45;&gt;Node10</title>
<g id="a_edge9_Node000009_Node000010"><a xlink:title=" ">
<path fill="none" stroke="#63b8ff" d="M647,-56.31C647,-48.12 647,-39.38 647,-32.22"/>
<polygon fill="#63b8ff" stroke="#63b8ff" points="643.5,-56.18 647,-66.18 650.5,-56.18 643.5,-56.18"/>
</a>
</g>
</g>
<!-- Node12 -->
<g id="Node000012" class="node">
<title>Node12</title>
<g id="a_Node000012"><a xlink:href="driver__max30205__read__test_8c.html" target="_top" xlink:title="driver max30205 read test source file">
<polygon fill="white" stroke="#666666" points="829.88,-32 720.12,-32 720.12,0 829.88,0 829.88,-32"/>
<text xml:space="preserve" text-anchor="start" x="728.12" y="-18.5" font-family="Helvetica,sans-Serif" font-size="10.00">test/driver_max30205</text>
<text xml:space="preserve" text-anchor="middle" x="775" y="-6.5" font-family="Helvetica,sans-Serif" font-size="10.00">_read_test.c</text>
</a>
</g>
</g>
<!-- Node11&#45;&gt;Node12 -->
<g id="edge11_Node000011_Node000012" class="edge">
<title>Node11&#45;&gt;Node12</title>
<g id="a_edge11_Node000011_Node000012"><a xlink:title=" ">
<path fill="none" stroke="#63b8ff" d="M775,-56.31C775,-48.12 775,-39.38 775,-32.22"/>
<polygon fill="#63b8ff" stroke="#63b8ff" points="771.5,-56.18 775,-66.18 778.5,-56.18 771.5,-56.18"/>
</a>
</g>
</g>
<!-- Node14 -->
<g id="Node000014" class="node">
<title>Node14</title>
<g id="a_Node000014"><a xlink:href="driver__max30205__register__test_8c.html" target="_top" xlink:title="driver max30205 register test source file">
<polygon fill="white" stroke="#666666" points="957.88,-32 848.12,-32 848.12,0 957.88,0 957.88,-32"/>
<text xml:space="preserve" text-anchor="start" x="856.12" y="-18.5" font-family="Helvetica,sans-Serif" font-size="10.00">test/driver_max30205</text>
<text xml:space="preserve" text-anchor="middle" x="903" y="-6.5" font-family="Helvetica,sans-Serif" font-size="10.00">_register_test.c</text>
</a>
</g>
</g>
<!-- Node13&#45;&gt;Node14 -->
<g id="edge13_Node000013_Node000014" class="edge">
<title>Node13&#45;&gt;Node14</title>
<g id="a_edge13_Node000013_Node000014"><a xlink:title=" ">
<path fill="none" stroke="#63b8ff" d="M903,-56.31C903,-48.12 903,-39.38 903,-32.22"/>
<polygon fill="#63b8ff" stroke="#63b8ff" points="899.5,-56.18 903,-66.18 906.5,-56.18 899.5,-56.18"/>
</a>
</g>
</g>
</g>
</svg>
