<?xml version="1.0" encoding="UTF-8" standalone="no"?>
<!DOCTYPE svg PUBLIC "-//W3C//DTD SVG 1.1//EN"
 "http://www.w3.org/Graphics/SVG/1.1/DTD/svg11.dtd">
<!-- Generated by graphviz version 13.1.0 (20250701.0955)
 -->
<!-- Title: max30205_interrupt_init Pages: 1 -->
<svg width="326pt" height="794pt"
 viewBox="0.00 0.00 326.00 794.00" xmlns="http://www.w3.org/2000/svg" xmlns:xlink="http://www.w3.org/1999/xlink">
<g id="graph0" class="graph" transform="scale(1 1) rotate(0) translate(4 790)">
<title>max30205_interrupt_init</title>
<!-- Node1 -->
<g id="Node000001" class="node">
<title>Node1</title>
<g id="a_Node000001"><a xlink:title="interrupt example init">
<polygon fill="#999999" stroke="#666666" points="119.5,-382 0,-382 0,-362 119.5,-362 119.5,-382"/>
<text xml:space="preserve" text-anchor="middle" x="59.75" y="-368.5" font-family="Helvetica,sans-Serif" font-size="10.00">max30205_interrupt_init</text>
</a>
</g>
</g>
<!-- Node2 -->
<g id="Node000002" class="node">
<title>Node2</title>
<g id="a_Node000002"><a xlink:href="group__max30205__interrupt__driver.html#ga9d5f05defaeca3f96cfd1184b7c75adb" target="_top" xlink:title="convert a temperature value to a register raw data">
<polygon fill="white" stroke="#666666" points="292.62,-786 180.62,-786 180.62,-754 292.62,-754 292.62,-786"/>
<text xml:space="preserve" text-anchor="start" x="188.62" y="-772.5" font-family="Helvetica,sans-Serif" font-size="10.00">max30205_convert_to</text>
<text xml:space="preserve" text-anchor="middle" x="236.62" y="-760.5" font-family="Helvetica,sans-Serif" font-size="10.00">_register</text>
</a>
</g>
</g>
<!-- Node1&#45;&gt;Node2 -->
<g id="edge1_Node000001_Node000002" class="edge">
<title>Node1&#45;&gt;Node2</title>
<g id="a_edge1_Node000001_Node000002"><a xlink:title=" ">
<path fill="none" stroke="#63b8ff" d="M62.02,-382.43C68.88,-437.04 103.11,-689.72 155.5,-745 159.76,-749.5 164.81,-753.19 170.28,-756.22"/>
<polygon fill="#63b8ff" stroke="#63b8ff" points="168.57,-759.28 179.11,-760.35 171.54,-752.94 168.57,-759.28"/>
</a>
</g>
</g>
<!-- Node3 -->
<g id="Node000003" class="node">
<title>Node3</title>
<g id="a_Node000003"><a xlink:href="group__max30205__base__driver.html#gab22489bf970c4ccdb1a825802f541733" target="_top" xlink:title="close the chip">
<polygon fill="white" stroke="#666666" points="281.38,-736 191.88,-736 191.88,-716 281.38,-716 281.38,-736"/>
<text xml:space="preserve" text-anchor="middle" x="236.62" y="-722.5" font-family="Helvetica,sans-Serif" font-size="10.00">max30205_deinit</text>
</a>
</g>
</g>
<!-- Node1&#45;&gt;Node3 -->
<g id="edge2_Node000001_Node000003" class="edge">
<title>Node1&#45;&gt;Node3</title>
<g id="a_edge2_Node000001_Node000003"><a xlink:title=" ">
<path fill="none" stroke="#63b8ff" d="M60.23,-382.31C58.51,-427.93 57.96,-613.55 155.5,-707 162.47,-713.68 171.35,-718.16 180.63,-721.13"/>
<polygon fill="#63b8ff" stroke="#63b8ff" points="179.61,-724.48 190.17,-723.59 181.36,-717.71 179.61,-724.48"/>
</a>
</g>
</g>
<!-- Node4 -->
<g id="Node000004" class="node">
<title>Node4</title>
<g id="a_Node000004"><a xlink:href="group__max30205__base__driver.html#gad575dd215c6f13551df95f36f97a7179" target="_top" xlink:title="initialize the chip">
<polygon fill="white" stroke="#666666" points="276.12,-698 197.12,-698 197.12,-678 276.12,-678 276.12,-698"/>
<text xml:space="preserve" text-anchor="middle" x="236.62" y="-684.5" font-family="Helvetica,sans-Serif" font-size="10.00">max30205_init</text>
</a>
</g>
</g>
<!-- Node1&#45;&gt;Node4 -->
<g id="edge3_Node000001_Node000004" class="edge">
<title>Node1&#45;&gt;Node4</title>
<g id="a_edge3_Node000001_Node000004"><a xlink:title=" ">
<path fill="none" stroke="#63b8ff" d="M60.66,-382.29C60.87,-424.69 67.57,-587.51 155.5,-669 163.84,-676.73 174.72,-681.49 185.77,-684.38"/>
<polygon fill="#63b8ff" stroke="#63b8ff" points="184.8,-687.75 195.3,-686.37 186.23,-680.9 184.8,-687.75"/>
</a>
</g>
</g>
<!-- Node5 -->
<g id="Node000005" class="node">
<title>Node5</title>
<g id="a_Node000005"><a xlink:href="group__max30205__interface__driver.html#gaef77c33af6abe41807078af9ef38a071" target="_top" xlink:title="interface print format data">
<polygon fill="white" stroke="#666666" points="288.5,-660 184.75,-660 184.75,-628 288.5,-628 288.5,-660"/>
<text xml:space="preserve" text-anchor="start" x="192.75" y="-646.5" font-family="Helvetica,sans-Serif" font-size="10.00">max30205_interface</text>
<text xml:space="preserve" text-anchor="middle" x="236.62" y="-634.5" font-family="Helvetica,sans-Serif" font-size="10.00">_debug_print</text>
</a>
</g>
</g>
<!-- Node1&#45;&gt;Node5 -->
<g id="edge4_Node000001_Node000005" class="edge">
<title>Node1&#45;&gt;Node5</title>
<g id="a_edge4_Node000001_Node000005"><a xlink:title=" ">
<path fill="none" stroke="#63b8ff" d="M61.59,-382.44C65.19,-420.15 82.64,-550.65 155.5,-619 160.93,-624.09 167.38,-628.15 174.23,-631.37"/>
<polygon fill="#63b8ff" stroke="#63b8ff" points="172.49,-634.45 183.07,-634.97 175.12,-627.96 172.49,-634.45"/>
</a>
</g>
</g>
<!-- Node6 -->
<g id="Node000006" class="node">
<title>Node6</title>
<g id="a_Node000006"><a xlink:href="group__max30205__interface__driver.html#ga41f38d0269dbb3427acdbd0ad3fbf765" target="_top" xlink:title="interface delay ms">
<polygon fill="white" stroke="#666666" points="288.5,-610 184.75,-610 184.75,-578 288.5,-578 288.5,-610"/>
<text xml:space="preserve" text-anchor="start" x="192.75" y="-596.5" font-family="Helvetica,sans-Serif" font-size="10.00">max30205_interface</text>
<text xml:space="preserve" text-anchor="middle" x="236.62" y="-584.5" font-family="Helvetica,sans-Serif" font-size="10.00">_delay_ms</text>
</a>
</g>
</g>
<!-- Node1&#45;&gt;Node6 -->
<g id="edge5_Node000001_Node000006" class="edge">
<title>Node1&#45;&gt;Node6</title>
<g id="a_edge5_Node000001_Node000006"><a xlink:title=" ">
<path fill="none" stroke="#63b8ff" d="M62.69,-382.33C69.36,-414.87 94.33,-516.16 155.5,-569 160.93,-573.69 167.23,-577.5 173.87,-580.59"/>
<polygon fill="#63b8ff" stroke="#63b8ff" points="172.52,-583.82 183.1,-584.33 175.14,-577.33 172.52,-583.82"/>
</a>
</g>
</g>
<!-- Node7 -->
<g id="Node000007" class="node">
<title>Node7</title>
<g id="a_Node000007"><a xlink:href="group__max30205__interface__driver.html#ga87b7c94132cb3c9481fcb23cf91ac0ad" target="_top" xlink:title="interface iic bus deinit">
<polygon fill="white" stroke="#666666" points="288.5,-560 184.75,-560 184.75,-528 288.5,-528 288.5,-560"/>
<text xml:space="preserve" text-anchor="start" x="192.75" y="-546.5" font-family="Helvetica,sans-Serif" font-size="10.00">max30205_interface</text>
<text xml:space="preserve" text-anchor="middle" x="236.62" y="-534.5" font-family="Helvetica,sans-Serif" font-size="10.00">_iic_deinit</text>
</a>
</g>
</g>
<!-- Node1&#45;&gt;Node7 -->
<g id="edge6_Node000001_Node000007" class="edge">
<title>Node1&#45;&gt;Node7</title>
<g id="a_edge6_Node000001_Node000007"><a xlink:title=" ">
<path fill="none" stroke="#63b8ff" d="M64.48,-382.3C74.7,-409.02 105.72,-481.13 155.5,-519 161.06,-523.23 167.34,-526.75 173.88,-529.68"/>
<polygon fill="#63b8ff" stroke="#63b8ff" points="172.32,-532.82 182.9,-533.25 174.9,-526.31 172.32,-532.82"/>
</a>
</g>
</g>
<!-- Node8 -->
<g id="Node000008" class="node">
<title>Node8</title>
<g id="a_Node000008"><a xlink:href="group__max30205__interface__driver.html#gaac2f43f9af71667e29265f0162e6149a" target="_top" xlink:title="interface iic bus init">
<polygon fill="white" stroke="#666666" points="288.5,-510 184.75,-510 184.75,-478 288.5,-478 288.5,-510"/>
<text xml:space="preserve" text-anchor="start" x="192.75" y="-496.5" font-family="Helvetica,sans-Serif" font-size="10.00">max30205_interface</text>
<text xml:space="preserve" text-anchor="middle" x="236.62" y="-484.5" font-family="Helvetica,sans-Serif" font-size="10.00">_iic_init</text>
</a>
</g>
</g>
<!-- Node1&#45;&gt;Node8 -->
<g id="edge7_Node000001_Node000008" class="edge">
<title>Node1&#45;&gt;Node8</title>
<g id="a_edge7_Node000001_Node000008"><a xlink:title=" ">
<path fill="none" stroke="#63b8ff" d="M68.1,-382.42C82.58,-402.18 116.76,-445.26 155.5,-469 161.15,-472.46 167.32,-475.48 173.65,-478.11"/>
<polygon fill="#63b8ff" stroke="#63b8ff" points="172.38,-481.37 182.98,-481.64 174.86,-474.83 172.38,-481.37"/>
</a>
</g>
</g>
<!-- Node9 -->
<g id="Node000009" class="node">
<title>Node9</title>
<g id="a_Node000009"><a xlink:href="group__max30205__interface__driver.html#gae0bc37d8f03473d076b11a4583172730" target="_top" xlink:title="interface iic bus read">
<polygon fill="white" stroke="#666666" points="288.5,-460 184.75,-460 184.75,-428 288.5,-428 288.5,-460"/>
<text xml:space="preserve" text-anchor="start" x="192.75" y="-446.5" font-family="Helvetica,sans-Serif" font-size="10.00">max30205_interface</text>
<text xml:space="preserve" text-anchor="middle" x="236.62" y="-434.5" font-family="Helvetica,sans-Serif" font-size="10.00">_iic_read</text>
</a>
</g>
</g>
<!-- Node1&#45;&gt;Node9 -->
<g id="edge8_Node000001_Node000009" class="edge">
<title>Node1&#45;&gt;Node9</title>
<g id="a_edge8_Node000001_Node000009"><a xlink:title=" ">
<path fill="none" stroke="#63b8ff" d="M79.58,-382.45C98.41,-392.63 128.4,-408.13 155.5,-419 161.39,-421.36 167.6,-423.65 173.84,-425.81"/>
<polygon fill="#63b8ff" stroke="#63b8ff" points="172.31,-428.98 182.9,-428.84 174.53,-422.35 172.31,-428.98"/>
</a>
</g>
</g>
<!-- Node10 -->
<g id="Node000010" class="node">
<title>Node10</title>
<g id="a_Node000010"><a xlink:href="group__max30205__interface__driver.html#ga9e9a9a3e7549d134488a42526b7263b3" target="_top" xlink:title="interface iic bus write">
<polygon fill="white" stroke="#666666" points="288.5,-410 184.75,-410 184.75,-378 288.5,-378 288.5,-410"/>
<text xml:space="preserve" text-anchor="start" x="192.75" y="-396.5" font-family="Helvetica,sans-Serif" font-size="10.00">max30205_interface</text>
<text xml:space="preserve" text-anchor="middle" x="236.62" y="-384.5" font-family="Helvetica,sans-Serif" font-size="10.00">_iic_write</text>
</a>
</g>
</g>
<!-- Node1&#45;&gt;Node10 -->
<g id="edge9_Node000001_Node000010" class="edge">
<title>Node1&#45;&gt;Node10</title>
<g id="a_edge9_Node000001_Node000010"><a xlink:title=" ">
<path fill="none" stroke="#63b8ff" d="M119.95,-379.45C137.11,-381.61 155.88,-383.97 173.22,-386.15"/>
<polygon fill="#63b8ff" stroke="#63b8ff" points="172.51,-389.59 182.87,-387.36 173.39,-382.64 172.51,-389.59"/>
</a>
</g>
</g>
<!-- Node11 -->
<g id="Node000011" class="node">
<title>Node11</title>
<g id="a_Node000011"><a xlink:href="group__max30205__base__driver.html#ga927f7365954d5dc46e61561860d05754" target="_top" xlink:title="set the iic address pin">
<polygon fill="white" stroke="#666666" points="297.5,-360 175.75,-360 175.75,-340 297.5,-340 297.5,-360"/>
<text xml:space="preserve" text-anchor="middle" x="236.62" y="-346.5" font-family="Helvetica,sans-Serif" font-size="10.00">max30205_set_addr_pin</text>
</a>
</g>
</g>
<!-- Node1&#45;&gt;Node11 -->
<g id="edge10_Node000001_Node000011" class="edge">
<title>Node1&#45;&gt;Node11</title>
<g id="a_edge10_Node000001_Node000011"><a xlink:title=" ">
<path fill="none" stroke="#63b8ff" d="M119.95,-364.55C134.17,-362.76 149.5,-360.84 164.2,-358.99"/>
<polygon fill="#63b8ff" stroke="#63b8ff" points="164.3,-362.5 173.79,-357.78 163.43,-355.55 164.3,-362.5"/>
</a>
</g>
</g>
<!-- Node12 -->
<g id="Node000012" class="node">
<title>Node12</title>
<g id="a_Node000012"><a xlink:href="group__max30205__base__driver.html#gab2786937c14c800d5a4b99c8449a91da" target="_top" xlink:title="set the iic bus timeout">
<polygon fill="white" stroke="#666666" points="305.75,-322 167.5,-322 167.5,-302 305.75,-302 305.75,-322"/>
<text xml:space="preserve" text-anchor="middle" x="236.62" y="-308.5" font-family="Helvetica,sans-Serif" font-size="10.00">max30205_set_bus_timeout</text>
</a>
</g>
</g>
<!-- Node1&#45;&gt;Node12 -->
<g id="edge11_Node000001_Node000012" class="edge">
<title>Node1&#45;&gt;Node12</title>
<g id="a_edge11_Node000001_Node000012"><a xlink:title=" ">
<path fill="none" stroke="#63b8ff" d="M81.78,-361.63C100.71,-352.6 129.47,-339.64 155.5,-331 161.67,-328.95 168.18,-327.03 174.71,-325.26"/>
<polygon fill="#63b8ff" stroke="#63b8ff" points="175.4,-328.69 184.2,-322.79 173.64,-321.92 175.4,-328.69"/>
</a>
</g>
</g>
<!-- Node13 -->
<g id="Node000013" class="node">
<title>Node13</title>
<g id="a_Node000013"><a xlink:href="group__max30205__base__driver.html#ga3681717abb8584550552b7b8da473c10" target="_top" xlink:title="set the chip data format">
<polygon fill="white" stroke="#666666" points="305,-284 168.25,-284 168.25,-264 305,-264 305,-284"/>
<text xml:space="preserve" text-anchor="middle" x="236.62" y="-270.5" font-family="Helvetica,sans-Serif" font-size="10.00">max30205_set_data_format</text>
</a>
</g>
</g>
<!-- Node1&#45;&gt;Node13 -->
<g id="edge12_Node000001_Node000013" class="edge">
<title>Node1&#45;&gt;Node13</title>
<g id="a_edge12_Node000001_Node000013"><a xlink:title=" ">
<path fill="none" stroke="#63b8ff" d="M70.14,-361.51C86,-344.45 119.87,-310.82 155.5,-293 158.99,-291.25 162.66,-289.66 166.41,-288.21"/>
<polygon fill="#63b8ff" stroke="#63b8ff" points="167.42,-291.56 175.73,-284.99 165.14,-284.95 167.42,-291.56"/>
</a>
</g>
</g>
<!-- Node14 -->
<g id="Node000014" class="node">
<title>Node14</title>
<g id="a_Node000014"><a xlink:href="group__max30205__interrupt__driver.html#ga21d3c0f6a04302a4c83c299eef377d5d" target="_top" xlink:title="set the chip fault queue">
<polygon fill="white" stroke="#666666" points="288.5,-246 184.75,-246 184.75,-214 288.5,-214 288.5,-246"/>
<text xml:space="preserve" text-anchor="start" x="192.75" y="-232.5" font-family="Helvetica,sans-Serif" font-size="10.00">max30205_set_fault</text>
<text xml:space="preserve" text-anchor="middle" x="236.62" y="-220.5" font-family="Helvetica,sans-Serif" font-size="10.00">_queue</text>
</a>
</g>
</g>
<!-- Node1&#45;&gt;Node14 -->
<g id="edge13_Node000001_Node000014" class="edge">
<title>Node1&#45;&gt;Node14</title>
<g id="a_edge13_Node000001_Node000014"><a xlink:title=" ">
<path fill="none" stroke="#63b8ff" d="M66.35,-361.53C79.08,-338.71 112.46,-284.21 155.5,-255 161.2,-251.13 167.52,-247.84 174.05,-245.05"/>
<polygon fill="#63b8ff" stroke="#63b8ff" points="174.92,-248.46 182.99,-241.59 172.4,-241.93 174.92,-248.46"/>
</a>
</g>
</g>
<!-- Node15 -->
<g id="Node000015" class="node">
<title>Node15</title>
<g id="a_Node000015"><a xlink:href="group__max30205__interrupt__driver.html#gae50fcca4ccb8c07afb1813251dc830b3" target="_top" xlink:title="set the chip interrupt high threshold">
<polygon fill="white" stroke="#666666" points="296.75,-196 176.5,-196 176.5,-164 296.75,-164 296.75,-196"/>
<text xml:space="preserve" text-anchor="start" x="184.5" y="-182.5" font-family="Helvetica,sans-Serif" font-size="10.00">max30205_set_interrupt</text>
<text xml:space="preserve" text-anchor="middle" x="236.62" y="-170.5" font-family="Helvetica,sans-Serif" font-size="10.00">_high_threshold</text>
</a>
</g>
</g>
<!-- Node1&#45;&gt;Node15 -->
<g id="edge14_Node000001_Node000015" class="edge">
<title>Node1&#45;&gt;Node15</title>
<g id="a_edge14_Node000001_Node000015"><a xlink:title=" ">
<path fill="none" stroke="#63b8ff" d="M63.67,-361.6C72.43,-332.37 101.27,-248.73 155.5,-205 158.75,-202.38 162.29,-200.03 165.99,-197.92"/>
<polygon fill="#63b8ff" stroke="#63b8ff" points="167.36,-201.15 174.78,-193.58 164.26,-194.87 167.36,-201.15"/>
</a>
</g>
</g>
<!-- Node16 -->
<g id="Node000016" class="node">
<title>Node16</title>
<g id="a_Node000016"><a xlink:href="group__max30205__interrupt__driver.html#ga3a335d7ee7009dd70406bf88fd63bffb" target="_top" xlink:title="set the chip interrupt low threshold">
<polygon fill="white" stroke="#666666" points="296.75,-146 176.5,-146 176.5,-114 296.75,-114 296.75,-146"/>
<text xml:space="preserve" text-anchor="start" x="184.5" y="-132.5" font-family="Helvetica,sans-Serif" font-size="10.00">max30205_set_interrupt</text>
<text xml:space="preserve" text-anchor="middle" x="236.62" y="-120.5" font-family="Helvetica,sans-Serif" font-size="10.00">_low_threshold</text>
</a>
</g>
</g>
<!-- Node1&#45;&gt;Node16 -->
<g id="edge15_Node000001_Node000016" class="edge">
<title>Node1&#45;&gt;Node16</title>
<g id="a_edge15_Node000001_Node000016"><a xlink:title=" ">
<path fill="none" stroke="#63b8ff" d="M62.2,-361.62C67.59,-326.95 89.69,-213.99 155.5,-155 158.67,-152.16 162.16,-149.64 165.86,-147.41"/>
<polygon fill="#63b8ff" stroke="#63b8ff" points="167.42,-150.54 174.7,-142.84 164.21,-144.32 167.42,-150.54"/>
</a>
</g>
</g>
<!-- Node17 -->
<g id="Node000017" class="node">
<title>Node17</title>
<g id="a_Node000017"><a xlink:href="group__max30205__interrupt__driver.html#ga2d437eadf4ec7a5f756a8bbab36d9076" target="_top" xlink:title="set the chip interrupt mode">
<polygon fill="white" stroke="#666666" points="311.38,-96 161.88,-96 161.88,-76 311.38,-76 311.38,-96"/>
<text xml:space="preserve" text-anchor="middle" x="236.62" y="-82.5" font-family="Helvetica,sans-Serif" font-size="10.00">max30205_set_interrupt_mode</text>
</a>
</g>
</g>
<!-- Node1&#45;&gt;Node17 -->
<g id="edge16_Node000001_Node000017" class="edge">
<title>Node1&#45;&gt;Node17</title>
<g id="a_edge16_Node000001_Node000017"><a xlink:title=" ">
<path fill="none" stroke="#63b8ff" d="M61.08,-361.66C62.93,-321.85 75.14,-177.1 155.5,-105 156.58,-104.03 157.69,-103.11 158.85,-102.24"/>
<polygon fill="#63b8ff" stroke="#63b8ff" points="160.37,-105.42 167.01,-97.16 156.67,-99.47 160.37,-105.42"/>
</a>
</g>
</g>
<!-- Node18 -->
<g id="Node000018" class="node">
<title>Node18</title>
<g id="a_Node000018"><a xlink:href="group__max30205__interrupt__driver.html#ga8e0157a845dab67c3af737723ae36496" target="_top" xlink:title="set the interrupt pin polarity">
<polygon fill="white" stroke="#666666" points="303.88,-58 169.38,-58 169.38,-38 303.88,-38 303.88,-58"/>
<text xml:space="preserve" text-anchor="middle" x="236.62" y="-44.5" font-family="Helvetica,sans-Serif" font-size="10.00">max30205_set_pin_polarity</text>
</a>
</g>
</g>
<!-- Node1&#45;&gt;Node18 -->
<g id="edge17_Node000001_Node000018" class="edge">
<title>Node1&#45;&gt;Node18</title>
<g id="a_edge17_Node000001_Node000018"><a xlink:title=" ">
<path fill="none" stroke="#63b8ff" d="M60.56,-361.74C60.35,-318.68 65.54,-151.01 155.5,-67 156.74,-65.84 158.04,-64.75 159.39,-63.72"/>
<polygon fill="#63b8ff" stroke="#63b8ff" points="160.98,-66.85 167.62,-58.6 157.28,-60.91 160.98,-66.85"/>
</a>
</g>
</g>
<!-- Node19 -->
<g id="Node000019" class="node">
<title>Node19</title>
<g id="a_Node000019"><a xlink:href="group__max30205__base__driver.html#ga5022c3047ec070aa8364a986d69ef4d2" target="_top" xlink:title="start reading data">
<polygon fill="white" stroke="#666666" points="317.75,-20 155.5,-20 155.5,0 317.75,0 317.75,-20"/>
<text xml:space="preserve" text-anchor="middle" x="236.62" y="-6.5" font-family="Helvetica,sans-Serif" font-size="10.00">max30205_start_continuous_read</text>
</a>
</g>
</g>
<!-- Node1&#45;&gt;Node19 -->
<g id="edge18_Node000001_Node000019" class="edge">
<title>Node1&#45;&gt;Node19</title>
<g id="a_edge18_Node000001_Node000019"><a xlink:title=" ">
<path fill="none" stroke="#63b8ff" d="M62.18,-361.67C69.56,-309.72 105.02,-77.66 155.5,-29 156.27,-28.26 157.05,-27.55 157.86,-26.87"/>
<polygon fill="#63b8ff" stroke="#63b8ff" points="159.71,-29.84 166.01,-21.32 155.77,-24.06 159.71,-29.84"/>
</a>
</g>
</g>
</g>
</svg>
