<?xml version="1.0" encoding="UTF-8" standalone="no"?>
<!DOCTYPE svg PUBLIC "-//W3C//DTD SVG 1.1//EN"
 "http://www.w3.org/Graphics/SVG/1.1/DTD/svg11.dtd">
<!-- Generated by graphviz version 13.1.0 (20250701.0955)
 -->
<!-- Title: max30205 driver function Pages: 1 -->
<svg width="297pt" height="340pt"
 viewBox="0.00 0.00 297.00 340.00" xmlns="http://www.w3.org/2000/svg" xmlns:xlink="http://www.w3.org/1999/xlink">
<g id="graph0" class="graph" transform="scale(1 1) rotate(0) translate(4 336)">
<title>max30205 driver function</title>
<!-- Node3 -->
<g id="Node000003" class="node">
<title>Node3</title>
<g id="a_Node000003"><a xlink:href="group__max30205__base__driver.html" target="_top" xlink:title="max30205 base driver modules">
<polygon fill="white" stroke="#666666" points="281.38,-332 169.38,-332 169.38,-300 281.38,-300 281.38,-332"/>
<text xml:space="preserve" text-anchor="start" x="177.38" y="-318.5" font-family="Helvetica,sans-Serif" font-size="10.00">max30205 base driver</text>
<text xml:space="preserve" text-anchor="middle" x="225.38" y="-306.5" font-family="Helvetica,sans-Serif" font-size="10.00"> function</text>
</a>
</g>
</g>
<!-- Node1 -->
<g id="Node000001" class="node">
<title>Node1</title>
<g id="a_Node000001"><a xlink:title="max30205 driver modules">
<polygon fill="#999999" stroke="#666666" points="125.5,-176 0,-176 0,-156 125.5,-156 125.5,-176"/>
<text xml:space="preserve" text-anchor="middle" x="62.75" y="-162.5" font-family="Helvetica,sans-Serif" font-size="10.00">max30205 driver function</text>
</a>
</g>
</g>
<!-- Node1&#45;&gt;Node3 -->
<g id="edge2" class="edge">
<title>Node1&#45;&gt;Node3</title>
<path fill="none" stroke="black" d="M74.87,-186.17C90.8,-213.39 122.54,-261.83 161.5,-291 165.73,-294.17 170.42,-297 175.27,-299.5"/>
<polygon fill="black" stroke="black" points="77.95,-184.5 69.96,-177.55 71.87,-187.97 77.95,-184.5"/>
</g>
<!-- Node7 -->
<g id="Node000007" class="node">
<title>Node7</title>
<g id="a_Node000007"><a xlink:href="group__max30205__example__driver.html" target="_top" xlink:title="max30205 example driver modules">
<polygon fill="white" stroke="#666666" points="289.25,-282 161.5,-282 161.5,-250 289.25,-250 289.25,-282"/>
<text xml:space="preserve" text-anchor="start" x="169.5" y="-268.5" font-family="Helvetica,sans-Serif" font-size="10.00">max30205 example driver</text>
<text xml:space="preserve" text-anchor="middle" x="225.38" y="-256.5" font-family="Helvetica,sans-Serif" font-size="10.00"> function</text>
</a>
</g>
</g>
<!-- Node1&#45;&gt;Node7 -->
<g id="edge6" class="edge">
<title>Node1&#45;&gt;Node7</title>
<path fill="none" stroke="black" d="M83.67,-183.95C102.65,-200.37 132.54,-224.55 161.5,-241 166.91,-244.07 172.78,-246.95 178.68,-249.57"/>
<polygon fill="black" stroke="black" points="86,-181.33 76.18,-177.36 81.38,-186.59 86,-181.33"/>
</g>
<!-- Node5 -->
<g id="Node000005" class="node">
<title>Node5</title>
<g id="a_Node000005"><a xlink:href="group__max30205__extend__driver.html" target="_top" xlink:title="max30205 extend driver modules">
<polygon fill="white" stroke="#666666" points="285.5,-232 165.25,-232 165.25,-200 285.5,-200 285.5,-232"/>
<text xml:space="preserve" text-anchor="start" x="173.25" y="-218.5" font-family="Helvetica,sans-Serif" font-size="10.00">max30205 extend driver</text>
<text xml:space="preserve" text-anchor="middle" x="225.38" y="-206.5" font-family="Helvetica,sans-Serif" font-size="10.00"> function</text>
</a>
</g>
</g>
<!-- Node1&#45;&gt;Node5 -->
<g id="edge4" class="edge">
<title>Node1&#45;&gt;Node5</title>
<path fill="none" stroke="black" d="M108.2,-179.84C127.8,-185.94 150.98,-193.15 171.46,-199.53"/>
<polygon fill="black" stroke="black" points="109.46,-176.56 98.87,-176.93 107.38,-183.25 109.46,-176.56"/>
</g>
<!-- Node6 -->
<g id="Node000006" class="node">
<title>Node6</title>
<g id="a_Node000006"><a xlink:href="group__max30205__interface__driver.html" target="_top" xlink:title="max30205 interface driver modules">
<polygon fill="white" stroke="#666666" points="276.12,-182 174.62,-182 174.62,-150 276.12,-150 276.12,-182"/>
<text xml:space="preserve" text-anchor="start" x="182.62" y="-168.5" font-family="Helvetica,sans-Serif" font-size="10.00">max30205 interface</text>
<text xml:space="preserve" text-anchor="middle" x="225.38" y="-156.5" font-family="Helvetica,sans-Serif" font-size="10.00"> driver function</text>
</a>
</g>
</g>
<!-- Node1&#45;&gt;Node6 -->
<g id="edge5" class="edge">
<title>Node1&#45;&gt;Node6</title>
<path fill="none" stroke="black" d="M137.28,-166C149.84,-166 162.61,-166 174.37,-166"/>
<polygon fill="black" stroke="black" points="137.37,-162.5 127.37,-166 137.37,-169.5 137.37,-162.5"/>
</g>
<!-- Node4 -->
<g id="Node000004" class="node">
<title>Node4</title>
<g id="a_Node000004"><a xlink:href="group__max30205__interrupt__driver.html" target="_top" xlink:title="max30205 interrupt driver modules">
<polygon fill="white" stroke="#666666" points="275,-132 175.75,-132 175.75,-100 275,-100 275,-132"/>
<text xml:space="preserve" text-anchor="start" x="183.75" y="-118.5" font-family="Helvetica,sans-Serif" font-size="10.00">max30205 interrupt</text>
<text xml:space="preserve" text-anchor="middle" x="225.38" y="-106.5" font-family="Helvetica,sans-Serif" font-size="10.00"> driver function</text>
</a>
</g>
</g>
<!-- Node1&#45;&gt;Node4 -->
<g id="edge3" class="edge">
<title>Node1&#45;&gt;Node4</title>
<path fill="none" stroke="black" d="M108.25,-152.15C129.14,-145.65 154.09,-137.88 175.51,-131.21"/>
<polygon fill="black" stroke="black" points="107.38,-148.75 98.87,-155.07 109.46,-155.44 107.38,-148.75"/>
</g>
<!-- Node2 -->
<g id="Node000002" class="node">
<title>Node2</title>
<g id="a_Node000002"><a xlink:href="group__max30205__link__driver.html" target="_top" xlink:title="max30205 link driver modules">
<polygon fill="white" stroke="#666666" points="278.38,-82 172.38,-82 172.38,-50 278.38,-50 278.38,-82"/>
<text xml:space="preserve" text-anchor="start" x="180.38" y="-68.5" font-family="Helvetica,sans-Serif" font-size="10.00">max30205 link driver</text>
<text xml:space="preserve" text-anchor="middle" x="225.38" y="-56.5" font-family="Helvetica,sans-Serif" font-size="10.00"> function</text>
</a>
</g>
</g>
<!-- Node1&#45;&gt;Node2 -->
<g id="edge1" class="edge">
<title>Node1&#45;&gt;Node2</title>
<path fill="none" stroke="black" d="M83.67,-148.05C102.65,-131.63 132.54,-107.45 161.5,-91 166.91,-87.93 172.78,-85.05 178.68,-82.43"/>
<polygon fill="black" stroke="black" points="81.38,-145.41 76.18,-154.64 86,-150.67 81.38,-145.41"/>
</g>
<!-- Node8 -->
<g id="Node000008" class="node">
<title>Node8</title>
<g id="a_Node000008"><a xlink:href="group__max30205__test__driver.html" target="_top" xlink:title="max30205 test driver modules">
<polygon fill="white" stroke="#666666" points="279.12,-32 171.62,-32 171.62,0 279.12,0 279.12,-32"/>
<text xml:space="preserve" text-anchor="start" x="179.62" y="-18.5" font-family="Helvetica,sans-Serif" font-size="10.00">max30205 test driver</text>
<text xml:space="preserve" text-anchor="middle" x="225.38" y="-6.5" font-family="Helvetica,sans-Serif" font-size="10.00"> function</text>
</a>
</g>
</g>
<!-- Node1&#45;&gt;Node8 -->
<g id="edge7" class="edge">
<title>Node1&#45;&gt;Node8</title>
<path fill="none" stroke="black" d="M74.87,-145.83C90.8,-118.61 122.54,-70.17 161.5,-41 165.73,-37.83 170.42,-35 175.27,-32.5"/>
<polygon fill="black" stroke="black" points="71.87,-144.03 69.96,-154.45 77.95,-147.5 71.87,-144.03"/>
</g>
</g>
</svg>
