<?xml version="1.0" encoding="UTF-8" standalone="no"?>
<!DOCTYPE svg PUBLIC "-//W3C//DTD SVG 1.1//EN"
 "http://www.w3.org/Graphics/SVG/1.1/DTD/svg11.dtd">
<!-- Generated by graphviz version 13.1.0 (20250701.0955)
 -->
<!-- Title: max30205_interrupt_deinit Pages: 1 -->
<svg width="307pt" height="66pt"
 viewBox="0.00 0.00 307.00 66.00" xmlns="http://www.w3.org/2000/svg" xmlns:xlink="http://www.w3.org/1999/xlink">
<g id="graph0" class="graph" transform="scale(1 1) rotate(0) translate(4 62)">
<title>max30205_interrupt_deinit</title>
<!-- Node1 -->
<g id="Node000001" class="node">
<title>Node1</title>
<g id="a_Node000001"><a xlink:title="interrupt example deinit">
<polygon fill="#999999" stroke="#666666" points="101.5,-45 0,-45 0,-13 101.5,-13 101.5,-45"/>
<text xml:space="preserve" text-anchor="start" x="8" y="-31.5" font-family="Helvetica,sans-Serif" font-size="10.00">max30205_interrupt</text>
<text xml:space="preserve" text-anchor="middle" x="50.75" y="-19.5" font-family="Helvetica,sans-Serif" font-size="10.00">_deinit</text>
</a>
</g>
</g>
<!-- Node2 -->
<g id="Node000002" class="node">
<title>Node2</title>
<g id="a_Node000002"><a xlink:href="group__max30205__base__driver.html#gab22489bf970c4ccdb1a825802f541733" target="_top" xlink:title="close the chip">
<polygon fill="white" stroke="#666666" points="263,-58 173.5,-58 173.5,-38 263,-38 263,-58"/>
<text xml:space="preserve" text-anchor="middle" x="218.25" y="-44.5" font-family="Helvetica,sans-Serif" font-size="10.00">max30205_deinit</text>
</a>
</g>
</g>
<!-- Node1&#45;&gt;Node2 -->
<g id="edge1_Node000001_Node000002" class="edge">
<title>Node1&#45;&gt;Node2</title>
<g id="a_edge1_Node000001_Node000002"><a xlink:title=" ">
<path fill="none" stroke="#63b8ff" d="M101.85,-34.75C120.77,-36.92 142.4,-39.41 161.78,-41.63"/>
<polygon fill="#63b8ff" stroke="#63b8ff" points="161.37,-45.11 171.7,-42.77 162.17,-38.15 161.37,-45.11"/>
</a>
</g>
</g>
<!-- Node3 -->
<g id="Node000003" class="node">
<title>Node3</title>
<g id="a_Node000003"><a xlink:href="group__max30205__base__driver.html#gafd4b31fb66ee8da1b7d1ddc3ad04ebf7" target="_top" xlink:title="stop reading data">
<polygon fill="white" stroke="#666666" points="299,-20 137.5,-20 137.5,0 299,0 299,-20"/>
<text xml:space="preserve" text-anchor="middle" x="218.25" y="-6.5" font-family="Helvetica,sans-Serif" font-size="10.00">max30205_stop_continuous_read</text>
</a>
</g>
</g>
<!-- Node1&#45;&gt;Node3 -->
<g id="edge2_Node000001_Node000003" class="edge">
<title>Node1&#45;&gt;Node3</title>
<g id="a_edge2_Node000001_Node000003"><a xlink:title=" ">
<path fill="none" stroke="#63b8ff" d="M101.85,-23.25C109.51,-22.37 117.6,-21.44 125.82,-20.5"/>
<polygon fill="#63b8ff" stroke="#63b8ff" points="126.01,-24 135.55,-19.38 125.22,-17.04 126.01,-24"/>
</a>
</g>
</g>
</g>
</svg>
