<?xml version="1.0" encoding="UTF-8" standalone="no"?>
<!DOCTYPE svg PUBLIC "-//W3C//DTD SVG 1.1//EN"
 "http://www.w3.org/Graphics/SVG/1.1/DTD/svg11.dtd">
<!-- Generated by graphviz version 13.1.0 (20250701.0955)
 -->
<!-- Title: max30205_basic_init Pages: 1 -->
<svg width="314pt" height="794pt"
 viewBox="0.00 0.00 314.00 794.00" xmlns="http://www.w3.org/2000/svg" xmlns:xlink="http://www.w3.org/1999/xlink">
<g id="graph0" class="graph" transform="scale(1 1) rotate(0) translate(4 790)">
<title>max30205_basic_init</title>
<!-- Node1 -->
<g id="Node000001" class="node">
<title>Node1</title>
<g id="a_Node000001"><a xlink:title="basic example init">
<polygon fill="#999999" stroke="#666666" points="107.5,-382 0,-382 0,-362 107.5,-362 107.5,-382"/>
<text xml:space="preserve" text-anchor="middle" x="53.75" y="-368.5" font-family="Helvetica,sans-Serif" font-size="10.00">max30205_basic_init</text>
</a>
</g>
</g>
<!-- Node2 -->
<g id="Node000002" class="node">
<title>Node2</title>
<g id="a_Node000002"><a xlink:href="group__max30205__interrupt__driver.html#ga9d5f05defaeca3f96cfd1184b7c75adb" target="_top" xlink:title="convert a temperature value to a register raw data">
<polygon fill="white" stroke="#666666" points="280.62,-786 168.62,-786 168.62,-754 280.62,-754 280.62,-786"/>
<text xml:space="preserve" text-anchor="start" x="176.62" y="-772.5" font-family="Helvetica,sans-Serif" font-size="10.00">max30205_convert_to</text>
<text xml:space="preserve" text-anchor="middle" x="224.62" y="-760.5" font-family="Helvetica,sans-Serif" font-size="10.00">_register</text>
</a>
</g>
</g>
<!-- Node1&#45;&gt;Node2 -->
<g id="edge1_Node000001_Node000002" class="edge">
<title>Node1&#45;&gt;Node2</title>
<g id="a_edge1_Node000001_Node000002"><a xlink:title=" ">
<path fill="none" stroke="#63b8ff" d="M55.84,-382.42C61.78,-437 91.72,-689.53 143.5,-745 147.73,-749.53 152.76,-753.24 158.21,-756.28"/>
<polygon fill="#63b8ff" stroke="#63b8ff" points="156.49,-759.34 167.03,-760.43 159.47,-753.01 156.49,-759.34"/>
</a>
</g>
</g>
<!-- Node3 -->
<g id="Node000003" class="node">
<title>Node3</title>
<g id="a_Node000003"><a xlink:href="group__max30205__base__driver.html#gab22489bf970c4ccdb1a825802f541733" target="_top" xlink:title="close the chip">
<polygon fill="white" stroke="#666666" points="269.38,-736 179.88,-736 179.88,-716 269.38,-716 269.38,-736"/>
<text xml:space="preserve" text-anchor="middle" x="224.62" y="-722.5" font-family="Helvetica,sans-Serif" font-size="10.00">max30205_deinit</text>
</a>
</g>
</g>
<!-- Node1&#45;&gt;Node3 -->
<g id="edge2_Node000001_Node000003" class="edge">
<title>Node1&#45;&gt;Node3</title>
<g id="a_edge2_Node000001_Node000003"><a xlink:title=" ">
<path fill="none" stroke="#63b8ff" d="M56.07,-382.43C62.78,-433.8 94.69,-659.45 143.5,-707 150.42,-713.74 159.27,-718.25 168.54,-721.23"/>
<polygon fill="#63b8ff" stroke="#63b8ff" points="167.52,-724.58 178.07,-723.69 169.27,-717.8 167.52,-724.58"/>
</a>
</g>
</g>
<!-- Node4 -->
<g id="Node000004" class="node">
<title>Node4</title>
<g id="a_Node000004"><a xlink:href="group__max30205__base__driver.html#gad575dd215c6f13551df95f36f97a7179" target="_top" xlink:title="initialize the chip">
<polygon fill="white" stroke="#666666" points="264.12,-698 185.12,-698 185.12,-678 264.12,-678 264.12,-698"/>
<text xml:space="preserve" text-anchor="middle" x="224.62" y="-684.5" font-family="Helvetica,sans-Serif" font-size="10.00">max30205_init</text>
</a>
</g>
</g>
<!-- Node1&#45;&gt;Node4 -->
<g id="edge3_Node000001_Node000004" class="edge">
<title>Node1&#45;&gt;Node4</title>
<g id="a_edge3_Node000001_Node000004"><a xlink:title=" ">
<path fill="none" stroke="#63b8ff" d="M54.43,-382.27C53.7,-424.6 56.82,-587.17 143.5,-669 151.76,-676.8 162.62,-681.59 173.67,-684.49"/>
<polygon fill="#63b8ff" stroke="#63b8ff" points="172.7,-687.86 183.2,-686.48 174.13,-681.01 172.7,-687.86"/>
</a>
</g>
</g>
<!-- Node5 -->
<g id="Node000005" class="node">
<title>Node5</title>
<g id="a_Node000005"><a xlink:href="group__max30205__interface__driver.html#gaef77c33af6abe41807078af9ef38a071" target="_top" xlink:title="interface print format data">
<polygon fill="white" stroke="#666666" points="276.5,-660 172.75,-660 172.75,-628 276.5,-628 276.5,-660"/>
<text xml:space="preserve" text-anchor="start" x="180.75" y="-646.5" font-family="Helvetica,sans-Serif" font-size="10.00">max30205_interface</text>
<text xml:space="preserve" text-anchor="middle" x="224.62" y="-634.5" font-family="Helvetica,sans-Serif" font-size="10.00">_debug_print</text>
</a>
</g>
</g>
<!-- Node1&#45;&gt;Node5 -->
<g id="edge4_Node000001_Node000005" class="edge">
<title>Node1&#45;&gt;Node5</title>
<g id="a_edge4_Node000001_Node000005"><a xlink:title=" ">
<path fill="none" stroke="#63b8ff" d="M55.31,-382.43C57.92,-420.08 71.95,-550.43 143.5,-619 148.87,-624.15 155.29,-628.24 162.12,-631.49"/>
<polygon fill="#63b8ff" stroke="#63b8ff" points="160.37,-634.55 170.95,-635.09 163.02,-628.07 160.37,-634.55"/>
</a>
</g>
</g>
<!-- Node6 -->
<g id="Node000006" class="node">
<title>Node6</title>
<g id="a_Node000006"><a xlink:href="group__max30205__interface__driver.html#ga41f38d0269dbb3427acdbd0ad3fbf765" target="_top" xlink:title="interface delay ms">
<polygon fill="white" stroke="#666666" points="276.5,-610 172.75,-610 172.75,-578 276.5,-578 276.5,-610"/>
<text xml:space="preserve" text-anchor="start" x="180.75" y="-596.5" font-family="Helvetica,sans-Serif" font-size="10.00">max30205_interface</text>
<text xml:space="preserve" text-anchor="middle" x="224.62" y="-584.5" font-family="Helvetica,sans-Serif" font-size="10.00">_delay_ms</text>
</a>
</g>
</g>
<!-- Node1&#45;&gt;Node6 -->
<g id="edge5_Node000001_Node000006" class="edge">
<title>Node1&#45;&gt;Node6</title>
<g id="a_edge5_Node000001_Node000006"><a xlink:title=" ">
<path fill="none" stroke="#63b8ff" d="M56.36,-382.32C61.97,-414.82 83.69,-516.02 143.5,-569 148.87,-573.76 155.13,-577.61 161.75,-580.73"/>
<polygon fill="#63b8ff" stroke="#63b8ff" points="160.39,-583.95 170.97,-584.48 163.03,-577.46 160.39,-583.95"/>
</a>
</g>
</g>
<!-- Node7 -->
<g id="Node000007" class="node">
<title>Node7</title>
<g id="a_Node000007"><a xlink:href="group__max30205__interface__driver.html#ga87b7c94132cb3c9481fcb23cf91ac0ad" target="_top" xlink:title="interface iic bus deinit">
<polygon fill="white" stroke="#666666" points="276.5,-560 172.75,-560 172.75,-528 276.5,-528 276.5,-560"/>
<text xml:space="preserve" text-anchor="start" x="180.75" y="-546.5" font-family="Helvetica,sans-Serif" font-size="10.00">max30205_interface</text>
<text xml:space="preserve" text-anchor="middle" x="224.62" y="-534.5" font-family="Helvetica,sans-Serif" font-size="10.00">_iic_deinit</text>
</a>
</g>
</g>
<!-- Node1&#45;&gt;Node7 -->
<g id="edge6_Node000001_Node000007" class="edge">
<title>Node1&#45;&gt;Node7</title>
<g id="a_edge6_Node000001_Node000007"><a xlink:title=" ">
<path fill="none" stroke="#63b8ff" d="M58.05,-382.3C67.16,-409.01 95.18,-481.1 143.5,-519 149.07,-523.37 155.41,-526.98 162.02,-529.96"/>
<polygon fill="#63b8ff" stroke="#63b8ff" points="160.59,-533.15 171.17,-533.59 163.17,-526.65 160.59,-533.15"/>
</a>
</g>
</g>
<!-- Node8 -->
<g id="Node000008" class="node">
<title>Node8</title>
<g id="a_Node000008"><a xlink:href="group__max30205__interface__driver.html#gaac2f43f9af71667e29265f0162e6149a" target="_top" xlink:title="interface iic bus init">
<polygon fill="white" stroke="#666666" points="276.5,-510 172.75,-510 172.75,-478 276.5,-478 276.5,-510"/>
<text xml:space="preserve" text-anchor="start" x="180.75" y="-496.5" font-family="Helvetica,sans-Serif" font-size="10.00">max30205_interface</text>
<text xml:space="preserve" text-anchor="middle" x="224.62" y="-484.5" font-family="Helvetica,sans-Serif" font-size="10.00">_iic_init</text>
</a>
</g>
</g>
<!-- Node1&#45;&gt;Node8 -->
<g id="edge7_Node000001_Node000008" class="edge">
<title>Node1&#45;&gt;Node8</title>
<g id="a_edge7_Node000001_Node000008"><a xlink:title=" ">
<path fill="none" stroke="#63b8ff" d="M61.47,-382.44C74.76,-402.24 106.32,-445.37 143.5,-469 149.09,-472.55 155.23,-475.64 161.54,-478.3"/>
<polygon fill="#63b8ff" stroke="#63b8ff" points="160.25,-481.55 170.84,-481.86 162.75,-475.01 160.25,-481.55"/>
</a>
</g>
</g>
<!-- Node9 -->
<g id="Node000009" class="node">
<title>Node9</title>
<g id="a_Node000009"><a xlink:href="group__max30205__interface__driver.html#gae0bc37d8f03473d076b11a4583172730" target="_top" xlink:title="interface iic bus read">
<polygon fill="white" stroke="#666666" points="276.5,-460 172.75,-460 172.75,-428 276.5,-428 276.5,-460"/>
<text xml:space="preserve" text-anchor="start" x="180.75" y="-446.5" font-family="Helvetica,sans-Serif" font-size="10.00">max30205_interface</text>
<text xml:space="preserve" text-anchor="middle" x="224.62" y="-434.5" font-family="Helvetica,sans-Serif" font-size="10.00">_iic_read</text>
</a>
</g>
</g>
<!-- Node1&#45;&gt;Node9 -->
<g id="edge8_Node000001_Node000009" class="edge">
<title>Node1&#45;&gt;Node9</title>
<g id="a_edge8_Node000001_Node000009"><a xlink:title=" ">
<path fill="none" stroke="#63b8ff" d="M71.97,-382.35C89.52,-392.59 117.75,-408.27 143.5,-419 149.36,-421.44 155.55,-423.78 161.78,-425.97"/>
<polygon fill="#63b8ff" stroke="#63b8ff" points="160.23,-429.14 170.82,-429.03 162.47,-422.51 160.23,-429.14"/>
</a>
</g>
</g>
<!-- Node10 -->
<g id="Node000010" class="node">
<title>Node10</title>
<g id="a_Node000010"><a xlink:href="group__max30205__interface__driver.html#ga9e9a9a3e7549d134488a42526b7263b3" target="_top" xlink:title="interface iic bus write">
<polygon fill="white" stroke="#666666" points="276.5,-410 172.75,-410 172.75,-378 276.5,-378 276.5,-410"/>
<text xml:space="preserve" text-anchor="start" x="180.75" y="-396.5" font-family="Helvetica,sans-Serif" font-size="10.00">max30205_interface</text>
<text xml:space="preserve" text-anchor="middle" x="224.62" y="-384.5" font-family="Helvetica,sans-Serif" font-size="10.00">_iic_write</text>
</a>
</g>
</g>
<!-- Node1&#45;&gt;Node10 -->
<g id="edge9_Node000001_Node000010" class="edge">
<title>Node1&#45;&gt;Node10</title>
<g id="a_edge9_Node000001_Node000010"><a xlink:title=" ">
<path fill="none" stroke="#63b8ff" d="M107.72,-378.9C124.62,-381.1 143.49,-383.56 161,-385.84"/>
<polygon fill="#63b8ff" stroke="#63b8ff" points="160.42,-389.3 170.79,-387.12 161.32,-382.35 160.42,-389.3"/>
</a>
</g>
</g>
<!-- Node11 -->
<g id="Node000011" class="node">
<title>Node11</title>
<g id="a_Node000011"><a xlink:href="group__max30205__base__driver.html#ga927f7365954d5dc46e61561860d05754" target="_top" xlink:title="set the iic address pin">
<polygon fill="white" stroke="#666666" points="285.5,-360 163.75,-360 163.75,-340 285.5,-340 285.5,-360"/>
<text xml:space="preserve" text-anchor="middle" x="224.62" y="-346.5" font-family="Helvetica,sans-Serif" font-size="10.00">max30205_set_addr_pin</text>
</a>
</g>
</g>
<!-- Node1&#45;&gt;Node11 -->
<g id="edge10_Node000001_Node000011" class="edge">
<title>Node1&#45;&gt;Node11</title>
<g id="a_edge10_Node000001_Node000011"><a xlink:title=" ">
<path fill="none" stroke="#63b8ff" d="M107.72,-365.1C121.83,-363.26 137.3,-361.25 152.22,-359.3"/>
<polygon fill="#63b8ff" stroke="#63b8ff" points="152.52,-362.79 161.98,-358.03 151.61,-355.85 152.52,-362.79"/>
</a>
</g>
</g>
<!-- Node12 -->
<g id="Node000012" class="node">
<title>Node12</title>
<g id="a_Node000012"><a xlink:href="group__max30205__base__driver.html#gab2786937c14c800d5a4b99c8449a91da" target="_top" xlink:title="set the iic bus timeout">
<polygon fill="white" stroke="#666666" points="293.75,-322 155.5,-322 155.5,-302 293.75,-302 293.75,-322"/>
<text xml:space="preserve" text-anchor="middle" x="224.62" y="-308.5" font-family="Helvetica,sans-Serif" font-size="10.00">max30205_set_bus_timeout</text>
</a>
</g>
</g>
<!-- Node1&#45;&gt;Node12 -->
<g id="edge11_Node000001_Node000012" class="edge">
<title>Node1&#45;&gt;Node12</title>
<g id="a_edge11_Node000001_Node000012"><a xlink:title=" ">
<path fill="none" stroke="#63b8ff" d="M74.37,-361.55C92.05,-352.47 118.96,-339.48 143.5,-331 149.33,-328.99 155.46,-327.11 161.64,-325.39"/>
<polygon fill="#63b8ff" stroke="#63b8ff" points="162.52,-328.78 171.29,-322.83 160.72,-322.01 162.52,-328.78"/>
</a>
</g>
</g>
<!-- Node13 -->
<g id="Node000013" class="node">
<title>Node13</title>
<g id="a_Node000013"><a xlink:href="group__max30205__base__driver.html#ga3681717abb8584550552b7b8da473c10" target="_top" xlink:title="set the chip data format">
<polygon fill="white" stroke="#666666" points="293,-284 156.25,-284 156.25,-264 293,-264 293,-284"/>
<text xml:space="preserve" text-anchor="middle" x="224.62" y="-270.5" font-family="Helvetica,sans-Serif" font-size="10.00">max30205_set_data_format</text>
</a>
</g>
</g>
<!-- Node1&#45;&gt;Node13 -->
<g id="edge12_Node000001_Node000013" class="edge">
<title>Node1&#45;&gt;Node13</title>
<g id="a_edge12_Node000001_Node000013"><a xlink:title=" ">
<path fill="none" stroke="#63b8ff" d="M63.16,-361.76C77.7,-344.76 109.29,-310.82 143.5,-293 146.8,-291.28 150.25,-289.72 153.8,-288.29"/>
<polygon fill="#63b8ff" stroke="#63b8ff" points="154.97,-291.59 163.21,-284.93 152.62,-285 154.97,-291.59"/>
</a>
</g>
</g>
<!-- Node14 -->
<g id="Node000014" class="node">
<title>Node14</title>
<g id="a_Node000014"><a xlink:href="group__max30205__interrupt__driver.html#ga21d3c0f6a04302a4c83c299eef377d5d" target="_top" xlink:title="set the chip fault queue">
<polygon fill="white" stroke="#666666" points="276.5,-246 172.75,-246 172.75,-214 276.5,-214 276.5,-246"/>
<text xml:space="preserve" text-anchor="start" x="180.75" y="-232.5" font-family="Helvetica,sans-Serif" font-size="10.00">max30205_set_fault</text>
<text xml:space="preserve" text-anchor="middle" x="224.62" y="-220.5" font-family="Helvetica,sans-Serif" font-size="10.00">_queue</text>
</a>
</g>
</g>
<!-- Node1&#45;&gt;Node14 -->
<g id="edge13_Node000001_Node000014" class="edge">
<title>Node1&#45;&gt;Node14</title>
<g id="a_edge13_Node000001_Node000014"><a xlink:title=" ">
<path fill="none" stroke="#63b8ff" d="M59.81,-361.52C71.38,-338.68 101.98,-284.15 143.5,-255 149.14,-251.04 155.42,-247.7 161.92,-244.87"/>
<polygon fill="#63b8ff" stroke="#63b8ff" points="162.8,-248.28 170.85,-241.39 160.26,-241.76 162.8,-248.28"/>
</a>
</g>
</g>
<!-- Node15 -->
<g id="Node000015" class="node">
<title>Node15</title>
<g id="a_Node000015"><a xlink:href="group__max30205__interrupt__driver.html#gae50fcca4ccb8c07afb1813251dc830b3" target="_top" xlink:title="set the chip interrupt high threshold">
<polygon fill="white" stroke="#666666" points="284.75,-196 164.5,-196 164.5,-164 284.75,-164 284.75,-196"/>
<text xml:space="preserve" text-anchor="start" x="172.5" y="-182.5" font-family="Helvetica,sans-Serif" font-size="10.00">max30205_set_interrupt</text>
<text xml:space="preserve" text-anchor="middle" x="224.62" y="-170.5" font-family="Helvetica,sans-Serif" font-size="10.00">_high_threshold</text>
</a>
</g>
</g>
<!-- Node1&#45;&gt;Node15 -->
<g id="edge14_Node000001_Node000015" class="edge">
<title>Node1&#45;&gt;Node15</title>
<g id="a_edge14_Node000001_Node000015"><a xlink:title=" ">
<path fill="none" stroke="#63b8ff" d="M57.28,-361.61C64.95,-332.39 90.68,-248.81 143.5,-205 146.72,-202.33 150.22,-199.95 153.9,-197.82"/>
<polygon fill="#63b8ff" stroke="#63b8ff" points="155.28,-201.04 162.65,-193.43 152.14,-194.78 155.28,-201.04"/>
</a>
</g>
</g>
<!-- Node16 -->
<g id="Node000016" class="node">
<title>Node16</title>
<g id="a_Node000016"><a xlink:href="group__max30205__interrupt__driver.html#ga3a335d7ee7009dd70406bf88fd63bffb" target="_top" xlink:title="set the chip interrupt low threshold">
<polygon fill="white" stroke="#666666" points="284.75,-146 164.5,-146 164.5,-114 284.75,-114 284.75,-146"/>
<text xml:space="preserve" text-anchor="start" x="172.5" y="-132.5" font-family="Helvetica,sans-Serif" font-size="10.00">max30205_set_interrupt</text>
<text xml:space="preserve" text-anchor="middle" x="224.62" y="-120.5" font-family="Helvetica,sans-Serif" font-size="10.00">_low_threshold</text>
</a>
</g>
</g>
<!-- Node1&#45;&gt;Node16 -->
<g id="edge15_Node000001_Node000016" class="edge">
<title>Node1&#45;&gt;Node16</title>
<g id="a_edge15_Node000001_Node000016"><a xlink:title=" ">
<path fill="none" stroke="#63b8ff" d="M55.89,-361.64C60.25,-327.01 79.02,-214.17 143.5,-155 146.79,-151.98 150.44,-149.33 154.31,-147"/>
<polygon fill="#63b8ff" stroke="#63b8ff" points="155.7,-150.22 162.99,-142.53 152.5,-143.99 155.7,-150.22"/>
</a>
</g>
</g>
<!-- Node17 -->
<g id="Node000017" class="node">
<title>Node17</title>
<g id="a_Node000017"><a xlink:href="group__max30205__interrupt__driver.html#ga2d437eadf4ec7a5f756a8bbab36d9076" target="_top" xlink:title="set the chip interrupt mode">
<polygon fill="white" stroke="#666666" points="299.38,-96 149.88,-96 149.88,-76 299.38,-76 299.38,-96"/>
<text xml:space="preserve" text-anchor="middle" x="224.62" y="-82.5" font-family="Helvetica,sans-Serif" font-size="10.00">max30205_set_interrupt_mode</text>
</a>
</g>
</g>
<!-- Node1&#45;&gt;Node17 -->
<g id="edge16_Node000001_Node000017" class="edge">
<title>Node1&#45;&gt;Node17</title>
<g id="a_edge16_Node000001_Node000017"><a xlink:title=" ">
<path fill="none" stroke="#63b8ff" d="M54.83,-361.68C55.7,-321.94 64.42,-177.41 143.5,-105 144.42,-104.16 145.38,-103.35 146.36,-102.57"/>
<polygon fill="#63b8ff" stroke="#63b8ff" points="148.04,-105.65 154.56,-97.3 144.26,-99.76 148.04,-105.65"/>
</a>
</g>
</g>
<!-- Node18 -->
<g id="Node000018" class="node">
<title>Node18</title>
<g id="a_Node000018"><a xlink:href="group__max30205__interrupt__driver.html#ga8e0157a845dab67c3af737723ae36496" target="_top" xlink:title="set the interrupt pin polarity">
<polygon fill="white" stroke="#666666" points="291.88,-58 157.38,-58 157.38,-38 291.88,-38 291.88,-58"/>
<text xml:space="preserve" text-anchor="middle" x="224.62" y="-44.5" font-family="Helvetica,sans-Serif" font-size="10.00">max30205_set_pin_polarity</text>
</a>
</g>
</g>
<!-- Node1&#45;&gt;Node18 -->
<g id="edge17_Node000001_Node000018" class="edge">
<title>Node1&#45;&gt;Node18</title>
<g id="a_edge17_Node000001_Node000018"><a xlink:title=" ">
<path fill="none" stroke="#63b8ff" d="M54.34,-361.75C53.19,-318.77 54.78,-151.36 143.5,-67 144.76,-65.8 146.09,-64.67 147.46,-63.61"/>
<polygon fill="#63b8ff" stroke="#63b8ff" points="149.3,-66.59 155.94,-58.33 145.6,-60.65 149.3,-66.59"/>
</a>
</g>
</g>
<!-- Node19 -->
<g id="Node000019" class="node">
<title>Node19</title>
<g id="a_Node000019"><a xlink:href="group__max30205__base__driver.html#ga5022c3047ec070aa8364a986d69ef4d2" target="_top" xlink:title="start reading data">
<polygon fill="white" stroke="#666666" points="305.75,-20 143.5,-20 143.5,0 305.75,0 305.75,-20"/>
<text xml:space="preserve" text-anchor="middle" x="224.62" y="-6.5" font-family="Helvetica,sans-Serif" font-size="10.00">max30205_start_continuous_read</text>
</a>
</g>
</g>
<!-- Node1&#45;&gt;Node19 -->
<g id="edge18_Node000001_Node000019" class="edge">
<title>Node1&#45;&gt;Node19</title>
<g id="a_edge18_Node000001_Node000019"><a xlink:title=" ">
<path fill="none" stroke="#63b8ff" d="M55.99,-361.67C62.42,-309.76 93.63,-77.86 143.5,-29 144.26,-28.26 145.04,-27.54 145.85,-26.85"/>
<polygon fill="#63b8ff" stroke="#63b8ff" points="147.7,-29.82 153.95,-21.27 143.73,-24.06 147.7,-29.82"/>
</a>
</g>
</g>
</g>
</svg>
