<?xml version="1.0" encoding="UTF-8" standalone="no"?>
<!DOCTYPE svg PUBLIC "-//W3C//DTD SVG 1.1//EN"
 "http://www.w3.org/Graphics/SVG/1.1/DTD/svg11.dtd">
<!-- Generated by graphviz version 13.1.0 (20250701.0955)
 -->
<!-- Title: max30205_shot_init Pages: 1 -->
<svg width="297pt" height="756pt"
 viewBox="0.00 0.00 297.00 756.00" xmlns="http://www.w3.org/2000/svg" xmlns:xlink="http://www.w3.org/1999/xlink">
<g id="graph0" class="graph" transform="scale(1 1) rotate(0) translate(4 752)">
<title>max30205_shot_init</title>
<!-- Node1 -->
<g id="Node000001" class="node">
<title>Node1</title>
<g id="a_Node000001"><a xlink:title="shot example init">
<polygon fill="#999999" stroke="#666666" points="103,-366 0,-366 0,-346 103,-346 103,-366"/>
<text xml:space="preserve" text-anchor="middle" x="51.5" y="-352.5" font-family="Helvetica,sans-Serif" font-size="10.00">max30205_shot_init</text>
</a>
</g>
</g>
<!-- Node2 -->
<g id="Node000002" class="node">
<title>Node2</title>
<g id="a_Node000002"><a xlink:href="group__max30205__interrupt__driver.html#ga9d5f05defaeca3f96cfd1184b7c75adb" target="_top" xlink:title="convert a temperature value to a register raw data">
<polygon fill="white" stroke="#666666" points="269.75,-748 157.75,-748 157.75,-716 269.75,-716 269.75,-748"/>
<text xml:space="preserve" text-anchor="start" x="165.75" y="-734.5" font-family="Helvetica,sans-Serif" font-size="10.00">max30205_convert_to</text>
<text xml:space="preserve" text-anchor="middle" x="213.75" y="-722.5" font-family="Helvetica,sans-Serif" font-size="10.00">_register</text>
</a>
</g>
</g>
<!-- Node1&#45;&gt;Node2 -->
<g id="edge1_Node000001_Node000002" class="edge">
<title>Node1&#45;&gt;Node2</title>
<g id="a_edge1_Node000001_Node000002"><a xlink:title=" ">
<path fill="none" stroke="#63b8ff" d="M53.72,-366.47C60.07,-419.13 90.82,-654.53 139,-707 141.56,-709.79 144.44,-712.27 147.55,-714.47"/>
<polygon fill="#63b8ff" stroke="#63b8ff" points="145.72,-717.45 156.11,-719.51 149.27,-711.42 145.72,-717.45"/>
</a>
</g>
</g>
<!-- Node3 -->
<g id="Node000003" class="node">
<title>Node3</title>
<g id="a_Node000003"><a xlink:href="group__max30205__base__driver.html#gab22489bf970c4ccdb1a825802f541733" target="_top" xlink:title="close the chip">
<polygon fill="white" stroke="#666666" points="258.5,-698 169,-698 169,-678 258.5,-678 258.5,-698"/>
<text xml:space="preserve" text-anchor="middle" x="213.75" y="-684.5" font-family="Helvetica,sans-Serif" font-size="10.00">max30205_deinit</text>
</a>
</g>
</g>
<!-- Node1&#45;&gt;Node3 -->
<g id="edge2_Node000001_Node000003" class="edge">
<title>Node1&#45;&gt;Node3</title>
<g id="a_edge2_Node000001_Node000003"><a xlink:title=" ">
<path fill="none" stroke="#63b8ff" d="M51.95,-366.45C50.24,-410.32 49.73,-581.28 139,-669 144.39,-674.29 151.04,-678.17 158.13,-681"/>
<polygon fill="#63b8ff" stroke="#63b8ff" points="156.69,-684.21 167.28,-683.97 158.85,-677.55 156.69,-684.21"/>
</a>
</g>
</g>
<!-- Node4 -->
<g id="Node000004" class="node">
<title>Node4</title>
<g id="a_Node000004"><a xlink:href="group__max30205__base__driver.html#gad575dd215c6f13551df95f36f97a7179" target="_top" xlink:title="initialize the chip">
<polygon fill="white" stroke="#666666" points="253.25,-660 174.25,-660 174.25,-640 253.25,-640 253.25,-660"/>
<text xml:space="preserve" text-anchor="middle" x="213.75" y="-646.5" font-family="Helvetica,sans-Serif" font-size="10.00">max30205_init</text>
</a>
</g>
</g>
<!-- Node1&#45;&gt;Node4 -->
<g id="edge3_Node000001_Node000004" class="edge">
<title>Node1&#45;&gt;Node4</title>
<g id="a_edge3_Node000001_Node000004"><a xlink:title=" ">
<path fill="none" stroke="#63b8ff" d="M52.41,-366.29C52.65,-406.59 59.12,-555.22 139,-631 145.68,-637.34 154.19,-641.64 163.04,-644.53"/>
<polygon fill="#63b8ff" stroke="#63b8ff" points="161.86,-647.84 172.43,-647.02 163.66,-641.08 161.86,-647.84"/>
</a>
</g>
</g>
<!-- Node5 -->
<g id="Node000005" class="node">
<title>Node5</title>
<g id="a_Node000005"><a xlink:href="group__max30205__interface__driver.html#gaef77c33af6abe41807078af9ef38a071" target="_top" xlink:title="interface print format data">
<polygon fill="white" stroke="#666666" points="265.62,-622 161.88,-622 161.88,-590 265.62,-590 265.62,-622"/>
<text xml:space="preserve" text-anchor="start" x="169.88" y="-608.5" font-family="Helvetica,sans-Serif" font-size="10.00">max30205_interface</text>
<text xml:space="preserve" text-anchor="middle" x="213.75" y="-596.5" font-family="Helvetica,sans-Serif" font-size="10.00">_debug_print</text>
</a>
</g>
</g>
<!-- Node1&#45;&gt;Node5 -->
<g id="edge4_Node000001_Node000005" class="edge">
<title>Node1&#45;&gt;Node5</title>
<g id="a_edge4_Node000001_Node000005"><a xlink:title=" ">
<path fill="none" stroke="#63b8ff" d="M53.43,-366.42C57.13,-401.79 73.96,-518.52 139,-581 142.66,-584.52 146.84,-587.54 151.3,-590.14"/>
<polygon fill="#63b8ff" stroke="#63b8ff" points="149.57,-593.19 160.08,-594.51 152.68,-586.92 149.57,-593.19"/>
</a>
</g>
</g>
<!-- Node6 -->
<g id="Node000006" class="node">
<title>Node6</title>
<g id="a_Node000006"><a xlink:href="group__max30205__interface__driver.html#ga41f38d0269dbb3427acdbd0ad3fbf765" target="_top" xlink:title="interface delay ms">
<polygon fill="white" stroke="#666666" points="265.62,-572 161.88,-572 161.88,-540 265.62,-540 265.62,-572"/>
<text xml:space="preserve" text-anchor="start" x="169.88" y="-558.5" font-family="Helvetica,sans-Serif" font-size="10.00">max30205_interface</text>
<text xml:space="preserve" text-anchor="middle" x="213.75" y="-546.5" font-family="Helvetica,sans-Serif" font-size="10.00">_delay_ms</text>
</a>
</g>
</g>
<!-- Node1&#45;&gt;Node6 -->
<g id="edge5_Node000001_Node000006" class="edge">
<title>Node1&#45;&gt;Node6</title>
<g id="a_edge5_Node000001_Node000006"><a xlink:title=" ">
<path fill="none" stroke="#63b8ff" d="M54.69,-366.38C61.55,-396.39 85.46,-484.11 139,-531 142.76,-534.3 146.98,-537.16 151.44,-539.65"/>
<polygon fill="#63b8ff" stroke="#63b8ff" points="149.62,-542.66 160.15,-543.87 152.67,-536.36 149.62,-542.66"/>
</a>
</g>
</g>
<!-- Node7 -->
<g id="Node000007" class="node">
<title>Node7</title>
<g id="a_Node000007"><a xlink:href="group__max30205__interface__driver.html#ga87b7c94132cb3c9481fcb23cf91ac0ad" target="_top" xlink:title="interface iic bus deinit">
<polygon fill="white" stroke="#666666" points="265.62,-522 161.88,-522 161.88,-490 265.62,-490 265.62,-522"/>
<text xml:space="preserve" text-anchor="start" x="169.88" y="-508.5" font-family="Helvetica,sans-Serif" font-size="10.00">max30205_interface</text>
<text xml:space="preserve" text-anchor="middle" x="213.75" y="-496.5" font-family="Helvetica,sans-Serif" font-size="10.00">_iic_deinit</text>
</a>
</g>
</g>
<!-- Node1&#45;&gt;Node7 -->
<g id="edge6_Node000001_Node000007" class="edge">
<title>Node1&#45;&gt;Node7</title>
<g id="a_edge6_Node000001_Node000007"><a xlink:title=" ">
<path fill="none" stroke="#63b8ff" d="M56.9,-366.41C67.48,-390.22 96.65,-449.06 139,-481 142.76,-483.84 146.87,-486.37 151.16,-488.62"/>
<polygon fill="#63b8ff" stroke="#63b8ff" points="149.5,-491.71 160.04,-492.75 152.45,-485.36 149.5,-491.71"/>
</a>
</g>
</g>
<!-- Node8 -->
<g id="Node000008" class="node">
<title>Node8</title>
<g id="a_Node000008"><a xlink:href="group__max30205__interface__driver.html#gaac2f43f9af71667e29265f0162e6149a" target="_top" xlink:title="interface iic bus init">
<polygon fill="white" stroke="#666666" points="265.62,-472 161.88,-472 161.88,-440 265.62,-440 265.62,-472"/>
<text xml:space="preserve" text-anchor="start" x="169.88" y="-458.5" font-family="Helvetica,sans-Serif" font-size="10.00">max30205_interface</text>
<text xml:space="preserve" text-anchor="middle" x="213.75" y="-446.5" font-family="Helvetica,sans-Serif" font-size="10.00">_iic_init</text>
</a>
</g>
</g>
<!-- Node1&#45;&gt;Node8 -->
<g id="edge7_Node000001_Node000008" class="edge">
<title>Node1&#45;&gt;Node8</title>
<g id="a_edge7_Node000001_Node000008"><a xlink:title=" ">
<path fill="none" stroke="#63b8ff" d="M61.89,-366.4C76.8,-382.36 107.44,-412.91 139,-431 142.85,-433.21 146.92,-435.26 151.1,-437.16"/>
<polygon fill="#63b8ff" stroke="#63b8ff" points="149.66,-440.35 160.23,-440.99 152.36,-433.89 149.66,-440.35"/>
</a>
</g>
</g>
<!-- Node9 -->
<g id="Node000009" class="node">
<title>Node9</title>
<g id="a_Node000009"><a xlink:href="group__max30205__interface__driver.html#gae0bc37d8f03473d076b11a4583172730" target="_top" xlink:title="interface iic bus read">
<polygon fill="white" stroke="#666666" points="265.62,-422 161.88,-422 161.88,-390 265.62,-390 265.62,-422"/>
<text xml:space="preserve" text-anchor="start" x="169.88" y="-408.5" font-family="Helvetica,sans-Serif" font-size="10.00">max30205_interface</text>
<text xml:space="preserve" text-anchor="middle" x="213.75" y="-396.5" font-family="Helvetica,sans-Serif" font-size="10.00">_iic_read</text>
</a>
</g>
</g>
<!-- Node1&#45;&gt;Node9 -->
<g id="edge8_Node000001_Node000009" class="edge">
<title>Node1&#45;&gt;Node9</title>
<g id="a_edge8_Node000001_Node000009"><a xlink:title=" ">
<path fill="none" stroke="#63b8ff" d="M86.09,-366.48C104.78,-372.31 128.63,-379.75 150.59,-386.61"/>
<polygon fill="#63b8ff" stroke="#63b8ff" points="149.49,-389.93 160.08,-389.57 151.57,-383.25 149.49,-389.93"/>
</a>
</g>
</g>
<!-- Node10 -->
<g id="Node000010" class="node">
<title>Node10</title>
<g id="a_Node000010"><a xlink:href="group__max30205__interface__driver.html#ga9e9a9a3e7549d134488a42526b7263b3" target="_top" xlink:title="interface iic bus write">
<polygon fill="white" stroke="#666666" points="265.62,-372 161.88,-372 161.88,-340 265.62,-340 265.62,-372"/>
<text xml:space="preserve" text-anchor="start" x="169.88" y="-358.5" font-family="Helvetica,sans-Serif" font-size="10.00">max30205_interface</text>
<text xml:space="preserve" text-anchor="middle" x="213.75" y="-346.5" font-family="Helvetica,sans-Serif" font-size="10.00">_iic_write</text>
</a>
</g>
</g>
<!-- Node1&#45;&gt;Node10 -->
<g id="edge9_Node000001_Node000010" class="edge">
<title>Node1&#45;&gt;Node10</title>
<g id="a_edge9_Node000001_Node000010"><a xlink:title=" ">
<path fill="none" stroke="#63b8ff" d="M103.2,-356C118.18,-356 134.75,-356 150.38,-356"/>
<polygon fill="#63b8ff" stroke="#63b8ff" points="150.04,-359.5 160.04,-356 150.04,-352.5 150.04,-359.5"/>
</a>
</g>
</g>
<!-- Node11 -->
<g id="Node000011" class="node">
<title>Node11</title>
<g id="a_Node000011"><a xlink:href="group__max30205__base__driver.html#ga927f7365954d5dc46e61561860d05754" target="_top" xlink:title="set the iic address pin">
<polygon fill="white" stroke="#666666" points="274.62,-322 152.88,-322 152.88,-302 274.62,-302 274.62,-322"/>
<text xml:space="preserve" text-anchor="middle" x="213.75" y="-308.5" font-family="Helvetica,sans-Serif" font-size="10.00">max30205_set_addr_pin</text>
</a>
</g>
</g>
<!-- Node1&#45;&gt;Node11 -->
<g id="edge10_Node000001_Node000011" class="edge">
<title>Node1&#45;&gt;Node11</title>
<g id="a_edge10_Node000001_Node000011"><a xlink:title=" ">
<path fill="none" stroke="#63b8ff" d="M87.79,-345.55C103.44,-340.98 122.11,-335.61 139,-331 145.86,-329.12 153.1,-327.2 160.25,-325.32"/>
<polygon fill="#63b8ff" stroke="#63b8ff" points="161.08,-328.72 169.88,-322.82 159.32,-321.95 161.08,-328.72"/>
</a>
</g>
</g>
<!-- Node12 -->
<g id="Node000012" class="node">
<title>Node12</title>
<g id="a_Node000012"><a xlink:href="group__max30205__base__driver.html#gab2786937c14c800d5a4b99c8449a91da" target="_top" xlink:title="set the iic bus timeout">
<polygon fill="white" stroke="#666666" points="282.88,-284 144.62,-284 144.62,-264 282.88,-264 282.88,-284"/>
<text xml:space="preserve" text-anchor="middle" x="213.75" y="-270.5" font-family="Helvetica,sans-Serif" font-size="10.00">max30205_set_bus_timeout</text>
</a>
</g>
</g>
<!-- Node1&#45;&gt;Node12 -->
<g id="edge11_Node000001_Node000012" class="edge">
<title>Node1&#45;&gt;Node12</title>
<g id="a_edge11_Node000001_Node000012"><a xlink:title=" ">
<path fill="none" stroke="#63b8ff" d="M63.63,-345.71C79.29,-331.78 109.26,-307.03 139,-293 142.92,-291.15 147.05,-289.46 151.27,-287.92"/>
<polygon fill="#63b8ff" stroke="#63b8ff" points="152.05,-291.35 160.44,-284.88 149.84,-284.71 152.05,-291.35"/>
</a>
</g>
</g>
<!-- Node13 -->
<g id="Node000013" class="node">
<title>Node13</title>
<g id="a_Node000013"><a xlink:href="group__max30205__base__driver.html#ga3681717abb8584550552b7b8da473c10" target="_top" xlink:title="set the chip data format">
<polygon fill="white" stroke="#666666" points="282.12,-246 145.38,-246 145.38,-226 282.12,-226 282.12,-246"/>
<text xml:space="preserve" text-anchor="middle" x="213.75" y="-232.5" font-family="Helvetica,sans-Serif" font-size="10.00">max30205_set_data_format</text>
</a>
</g>
</g>
<!-- Node1&#45;&gt;Node13 -->
<g id="edge12_Node000001_Node000013" class="edge">
<title>Node1&#45;&gt;Node13</title>
<g id="a_edge12_Node000001_Node000013"><a xlink:title=" ">
<path fill="none" stroke="#63b8ff" d="M58.39,-345.59C70.6,-324.95 100.79,-278.81 139,-255 141.41,-253.5 143.93,-252.12 146.52,-250.85"/>
<polygon fill="#63b8ff" stroke="#63b8ff" points="147.63,-254.18 155.46,-247.05 144.89,-247.74 147.63,-254.18"/>
</a>
</g>
</g>
<!-- Node14 -->
<g id="Node000014" class="node">
<title>Node14</title>
<g id="a_Node000014"><a xlink:href="group__max30205__interrupt__driver.html#ga21d3c0f6a04302a4c83c299eef377d5d" target="_top" xlink:title="set the chip fault queue">
<polygon fill="white" stroke="#666666" points="265.62,-208 161.88,-208 161.88,-176 265.62,-176 265.62,-208"/>
<text xml:space="preserve" text-anchor="start" x="169.88" y="-194.5" font-family="Helvetica,sans-Serif" font-size="10.00">max30205_set_fault</text>
<text xml:space="preserve" text-anchor="middle" x="213.75" y="-182.5" font-family="Helvetica,sans-Serif" font-size="10.00">_queue</text>
</a>
</g>
</g>
<!-- Node1&#45;&gt;Node14 -->
<g id="edge13_Node000001_Node000014" class="edge">
<title>Node1&#45;&gt;Node14</title>
<g id="a_edge13_Node000001_Node000014"><a xlink:title=" ">
<path fill="none" stroke="#63b8ff" d="M56.13,-345.58C65.62,-319.9 93.57,-253.03 139,-217 142.75,-214.02 146.88,-211.39 151.21,-209.07"/>
<polygon fill="#63b8ff" stroke="#63b8ff" points="152.66,-212.25 160.21,-204.82 149.67,-205.92 152.66,-212.25"/>
</a>
</g>
</g>
<!-- Node15 -->
<g id="Node000015" class="node">
<title>Node15</title>
<g id="a_Node000015"><a xlink:href="group__max30205__interrupt__driver.html#gae50fcca4ccb8c07afb1813251dc830b3" target="_top" xlink:title="set the chip interrupt high threshold">
<polygon fill="white" stroke="#666666" points="273.88,-158 153.62,-158 153.62,-126 273.88,-126 273.88,-158"/>
<text xml:space="preserve" text-anchor="start" x="161.62" y="-144.5" font-family="Helvetica,sans-Serif" font-size="10.00">max30205_set_interrupt</text>
<text xml:space="preserve" text-anchor="middle" x="213.75" y="-132.5" font-family="Helvetica,sans-Serif" font-size="10.00">_high_threshold</text>
</a>
</g>
</g>
<!-- Node1&#45;&gt;Node15 -->
<g id="edge14_Node000001_Node000015" class="edge">
<title>Node1&#45;&gt;Node15</title>
<g id="a_edge14_Node000001_Node000015"><a xlink:title=" ">
<path fill="none" stroke="#63b8ff" d="M54.25,-345.71C60.16,-314.23 82.21,-218.26 139,-167 140.45,-165.69 141.97,-164.45 143.55,-163.28"/>
<polygon fill="#63b8ff" stroke="#63b8ff" points="145.27,-166.33 151.86,-158.03 141.54,-160.41 145.27,-166.33"/>
</a>
</g>
</g>
<!-- Node16 -->
<g id="Node000016" class="node">
<title>Node16</title>
<g id="a_Node000016"><a xlink:href="group__max30205__interrupt__driver.html#ga3a335d7ee7009dd70406bf88fd63bffb" target="_top" xlink:title="set the chip interrupt low threshold">
<polygon fill="white" stroke="#666666" points="273.88,-108 153.62,-108 153.62,-76 273.88,-76 273.88,-108"/>
<text xml:space="preserve" text-anchor="start" x="161.62" y="-94.5" font-family="Helvetica,sans-Serif" font-size="10.00">max30205_set_interrupt</text>
<text xml:space="preserve" text-anchor="middle" x="213.75" y="-82.5" font-family="Helvetica,sans-Serif" font-size="10.00">_low_threshold</text>
</a>
</g>
</g>
<!-- Node1&#45;&gt;Node16 -->
<g id="edge15_Node000001_Node000016" class="edge">
<title>Node1&#45;&gt;Node16</title>
<g id="a_edge15_Node000001_Node000016"><a xlink:title=" ">
<path fill="none" stroke="#63b8ff" d="M53.15,-345.72C56.01,-309.14 70.6,-184.01 139,-117 140.56,-115.47 142.21,-114.04 143.94,-112.7"/>
<polygon fill="#63b8ff" stroke="#63b8ff" points="145.44,-115.9 151.9,-107.5 141.61,-110.04 145.44,-115.9"/>
</a>
</g>
</g>
<!-- Node17 -->
<g id="Node000017" class="node">
<title>Node17</title>
<g id="a_Node000017"><a xlink:href="group__max30205__interrupt__driver.html#ga2d437eadf4ec7a5f756a8bbab36d9076" target="_top" xlink:title="set the chip interrupt mode">
<polygon fill="white" stroke="#666666" points="288.5,-58 139,-58 139,-38 288.5,-38 288.5,-58"/>
<text xml:space="preserve" text-anchor="middle" x="213.75" y="-44.5" font-family="Helvetica,sans-Serif" font-size="10.00">max30205_set_interrupt_mode</text>
</a>
</g>
</g>
<!-- Node1&#45;&gt;Node17 -->
<g id="edge16_Node000001_Node000017" class="edge">
<title>Node1&#45;&gt;Node17</title>
<g id="a_edge16_Node000001_Node000017"><a xlink:title=" ">
<path fill="none" stroke="#63b8ff" d="M52.23,-345.77C51.73,-304.32 55.59,-147.25 139,-67 139.77,-66.26 140.57,-65.54 141.39,-64.86"/>
<polygon fill="#63b8ff" stroke="#63b8ff" points="143.3,-67.79 149.66,-59.32 139.4,-61.97 143.3,-67.79"/>
</a>
</g>
</g>
<!-- Node18 -->
<g id="Node000018" class="node">
<title>Node18</title>
<g id="a_Node000018"><a xlink:href="group__max30205__interrupt__driver.html#ga8e0157a845dab67c3af737723ae36496" target="_top" xlink:title="set the interrupt pin polarity">
<polygon fill="white" stroke="#666666" points="281,-20 146.5,-20 146.5,0 281,0 281,-20"/>
<text xml:space="preserve" text-anchor="middle" x="213.75" y="-6.5" font-family="Helvetica,sans-Serif" font-size="10.00">max30205_set_pin_polarity</text>
</a>
</g>
</g>
<!-- Node1&#45;&gt;Node18 -->
<g id="edge17_Node000001_Node000018" class="edge">
<title>Node1&#45;&gt;Node18</title>
<g id="a_edge17_Node000001_Node000018"><a xlink:title=" ">
<path fill="none" stroke="#63b8ff" d="M53.85,-345.51C60.55,-294.81 91.93,-75.77 139,-29 139.76,-28.25 140.54,-27.52 141.35,-26.82"/>
<polygon fill="#63b8ff" stroke="#63b8ff" points="143.27,-29.75 149.55,-21.21 139.32,-23.97 143.27,-29.75"/>
</a>
</g>
</g>
</g>
</svg>
